<?xml version="1.0" encoding="utf-8"?>
<!-- Generator: Adobe Illustrator 25.0.0, SVG Export Plug-In . SVG Version: 6.00 Build 0)  -->
<svg version="1.1" id="Layer_1" xmlns="http://www.w3.org/2000/svg" xmlns:xlink="http://www.w3.org/1999/xlink" x="0px" y="0px"
	 viewBox="0 0 576.2 586.7" style="enable-background:new 0 0 576.2 586.7;" xml:space="preserve">
<style type="text/css">
	.st0{fill:#531510;}
	.st1{fill:#E8D995;}
</style>
<rect x="-23.7" class="st0" width="618.7" height="592.5"/>
<polygon class="st1" points="279.4,77.7 279.4,284.9 166.5,284.9 118.4,203.8 118.4,284.9 72.2,284.9 72.2,77.7 159.4,77.7 
	207.9,160 207.9,77.7 "/>
<polygon class="st1" points="498.1,77.7 498.1,284.9 442.6,284.9 394.5,203.7 346.1,284.9 290.9,284.9 290.9,77.7 "/>
<polygon class="st1" points="498.1,294.7 498.1,501.9 442.6,501.9 394.5,420.6 346.1,501.9 290.9,501.9 290.9,294.7 "/>
<path class="st1" d="M215.3,459.2l25.4,42.7H166l-48.3-81.1v81.1H72.2V294.7H196c46,0,83.4,37.3,83.4,83.4
	C279.4,417.5,252,450.5,215.3,459.2z"/>
<g>
	<g>
		<path class="st1" d="M73.3,29.5h2.9h2.9l11,32.8h0l11-32.8h2.9h2.9l-14,38.4H90h-2.8L73.3,29.5z"/>
		<path class="st1" d="M112.7,29.5h2.6h2.6v38.4h-2.6h-2.6V29.5z"/>
		<path class="st1" d="M138,29.5h3h3l13.8,38.4h-2.8h-2.8l-3.9-11.1h-15.3l-4,11.1h-2.7h-2.7L138,29.5z M134.5,52.2h12.1l-5.9-17h0
			L134.5,52.2z"/>
	</g>
</g>
<g>
	<g>
		<path class="st1" d="M79.2,514.1h4v11.5h6.3v3.4h-6.3v27.4h-4V529h-5.4v-3.4h5.4V514.1z"/>
		<path class="st1" d="M96.7,513.6h4v17.4c1.6-2.1,3.4-3.7,5.3-4.8s4-1.6,6.3-1.6c2.3,0,4.4,0.6,6.1,1.8s3.1,2.7,4,4.7
			c0.9,2,1.3,5.1,1.3,9.3v15.9h-4v-14.7c0-3.6-0.1-5.9-0.4-7.1c-0.5-2-1.4-3.6-2.7-4.6c-1.3-1-3-1.5-5.1-1.5c-2.4,0-4.6,0.8-6.5,2.4
			s-3.1,3.6-3.8,5.9c-0.4,1.5-0.6,4.3-0.6,8.4v11.3h-4V513.6z"/>
		<path class="st1" d="M159.4,546.2l3.3,1.8c-1.1,2.2-2.4,3.9-3.8,5.2c-1.4,1.3-3.1,2.3-4.8,3c-1.8,0.7-3.8,1-6.1,1
			c-5,0-9-1.7-11.8-4.9c-2.8-3.3-4.3-7-4.3-11.2c0-3.9,1.2-7.4,3.6-10.5c3-3.9,7.1-5.8,12.2-5.8c5.3,0,9.5,2,12.6,6
			c2.2,2.8,3.4,6.3,3.4,10.5H136c0.1,3.6,1.2,6.5,3.4,8.8c2.2,2.3,5,3.4,8.2,3.4c1.6,0,3.1-0.3,4.6-0.8c1.5-0.5,2.7-1.3,3.8-2.2
			C157.1,549.6,158.2,548.2,159.4,546.2z M159.4,537.9c-0.5-2.1-1.3-3.8-2.3-5.1c-1-1.3-2.3-2.3-4-3.1c-1.7-0.8-3.4-1.2-5.3-1.2
			c-3,0-5.6,1-7.8,2.9c-1.6,1.4-2.8,3.5-3.6,6.4H159.4z"/>
		<path class="st1" d="M189.2,513.6h4v42.8h-4V513.6z"/>
		<path class="st1" d="M204.1,512.8c0.9,0,1.7,0.3,2.3,1c0.6,0.6,1,1.4,1,2.3c0,0.9-0.3,1.7-1,2.3c-0.6,0.6-1.4,1-2.3,1
			c-0.9,0-1.6-0.3-2.3-1c-0.6-0.6-1-1.4-1-2.3c0-0.9,0.3-1.7,1-2.3C202.5,513.2,203.2,512.8,204.1,512.8z M202.1,525.5h4v30.9h-4
			V525.5z"/>
		<path class="st1" d="M212.7,525.5h4.2l10.4,22.5l10.2-22.5h4.3l-14.1,30.9h-0.7L212.7,525.5z"/>
		<path class="st1" d="M250.5,512.8c0.9,0,1.7,0.3,2.3,1c0.6,0.6,1,1.4,1,2.3c0,0.9-0.3,1.7-1,2.3c-0.6,0.6-1.4,1-2.3,1
			c-0.9,0-1.7-0.3-2.3-1c-0.6-0.6-1-1.4-1-2.3c0-0.9,0.3-1.7,1-2.3C248.8,513.2,249.6,512.8,250.5,512.8z M248.5,525.5h4v30.9h-4
			V525.5z"/>
		<path class="st1" d="M262,525.5h4v5.5c1.6-2.1,3.3-3.7,5.3-4.8c1.9-1,4-1.6,6.3-1.6c2.3,0,4.4,0.6,6.1,1.8s3.1,2.8,4,4.7
			c0.9,2,1.3,5.1,1.3,9.3v15.9h-4v-14.7c0-3.6-0.1-5.9-0.4-7.1c-0.5-2-1.3-3.6-2.6-4.6c-1.3-1-3-1.5-5.1-1.5c-2.4,0-4.6,0.8-6.5,2.4
			c-1.9,1.6-3.1,3.6-3.8,5.9c-0.4,1.5-0.6,4.3-0.6,8.4v11.3h-4V525.5z"/>
		<path class="st1" d="M325.3,525.5h4v24.6c0,4.3-0.4,7.5-1.1,9.5c-1,2.8-2.8,5-5.4,6.6c-2.6,1.5-5.7,2.3-9.3,2.3
			c-2.6,0-5-0.4-7.1-1.1c-2.1-0.8-3.8-1.8-5.1-3c-1.3-1.3-2.5-3.1-3.7-5.5h4.3c1.2,2,2.7,3.6,4.5,4.5c1.9,1,4.2,1.5,6.9,1.5
			c2.7,0,5-0.5,6.9-1.5c1.9-1,3.2-2.3,4-3.8c0.8-1.5,1.2-4,1.2-7.4v-1.6c-1.5,1.9-3.3,3.3-5.5,4.4c-2.2,1-4.4,1.5-6.9,1.5
			c-2.8,0-5.5-0.7-8-2.1c-2.5-1.4-4.4-3.3-5.8-5.7c-1.4-2.4-2-5-2-7.9c0-2.9,0.7-5.5,2.1-8c1.4-2.5,3.4-4.4,5.9-5.9
			c2.5-1.4,5.2-2.2,7.9-2.2c2.3,0,4.5,0.5,6.5,1.4c2,1,3.9,2.5,5.8,4.7V525.5z M313.6,528.6c-2.2,0-4.3,0.5-6.3,1.6
			c-1.9,1.1-3.4,2.6-4.5,4.5c-1.1,1.9-1.6,4-1.6,6.2c0,3.4,1.1,6.2,3.4,8.4s5.2,3.3,8.8,3.3c3.7,0,6.6-1.1,8.8-3.3
			c2.2-2.2,3.3-5.1,3.3-8.6c0-2.3-0.5-4.4-1.5-6.2c-1-1.8-2.5-3.3-4.3-4.3S315.7,528.6,313.6,528.6z"/>
		<path class="st1" d="M371.9,528.9l-2.6,2.6c-2.1-2.1-4.2-3.1-6.2-3.1c-1.3,0-2.4,0.4-3.3,1.3c-0.9,0.9-1.4,1.8-1.4,3
			c0,1,0.4,2,1.1,2.9c0.8,0.9,2.3,2,4.8,3.3c2.9,1.5,5,3,6,4.4c1,1.4,1.6,3.1,1.6,4.8c0,2.5-0.9,4.7-2.7,6.4s-4,2.6-6.7,2.6
			c-1.8,0-3.5-0.4-5.1-1.2c-1.6-0.8-3-1.8-4-3.2l2.5-2.8c2,2.3,4.2,3.4,6.5,3.4c1.6,0,2.9-0.5,4.1-1.5c1.1-1,1.7-2.2,1.7-3.6
			c0-1.1-0.4-2.1-1.1-3c-0.7-0.9-2.4-2-5-3.3c-2.8-1.4-4.7-2.9-5.7-4.3c-1-1.4-1.5-3-1.5-4.8c0-2.3,0.8-4.3,2.4-5.8
			c1.6-1.6,3.6-2.3,6.1-2.3C366.2,524.8,369,526.1,371.9,528.9z"/>
		<path class="st1" d="M383.7,514.1h4v11.5h6.3v3.4h-6.3v27.4h-4V529h-5.4v-3.4h5.4V514.1z"/>
		<path class="st1" d="M397.9,525.5h4.2l10.6,23.8l10.3-23.8h4.2l-18.4,42.1h-4.2l5.9-13.6L397.9,525.5z"/>
		<path class="st1" d="M433,513.6h4v42.8h-4V513.6z"/>
		<path class="st1" d="M447.9,512.8c0.9,0,1.7,0.3,2.3,1c0.6,0.6,1,1.4,1,2.3c0,0.9-0.3,1.7-1,2.3c-0.6,0.6-1.4,1-2.3,1
			c-0.9,0-1.7-0.3-2.3-1c-0.6-0.6-1-1.4-1-2.3c0-0.9,0.3-1.7,1-2.3C446.2,513.2,447,512.8,447.9,512.8z M445.9,525.5h4v30.9h-4
			V525.5z"/>
		<path class="st1" d="M474.9,528.9l-2.6,2.6c-2.1-2.1-4.2-3.1-6.2-3.1c-1.3,0-2.4,0.4-3.3,1.3c-0.9,0.9-1.4,1.8-1.4,3
			c0,1,0.4,2,1.1,2.9c0.8,0.9,2.3,2,4.8,3.3c2.9,1.5,5,3,6,4.4c1,1.4,1.6,3.1,1.6,4.8c0,2.5-0.9,4.7-2.7,6.4s-4,2.6-6.7,2.6
			c-1.8,0-3.5-0.4-5.1-1.2c-1.6-0.8-3-1.8-4-3.2l2.5-2.8c2,2.3,4.2,3.4,6.5,3.4c1.6,0,2.9-0.5,4.1-1.5c1.1-1,1.7-2.2,1.7-3.6
			c0-1.1-0.4-2.1-1.1-3c-0.7-0.9-2.4-2-5-3.3c-2.8-1.4-4.7-2.9-5.7-4.3c-1-1.4-1.5-3-1.5-4.8c0-2.3,0.8-4.3,2.4-5.8
			c1.6-1.6,3.6-2.3,6.1-2.3C469.2,524.8,472.1,526.1,474.9,528.9z"/>
		<path class="st1" d="M486.7,514.1h4v11.5h6.3v3.4h-6.3v27.4h-4V529h-5.4v-3.4h5.4V514.1z"/>
	</g>
</g>
</svg>
