<?xml version="1.0" encoding="utf-8"?>
<!-- Generator: Adobe Illustrator 25.0.0, SVG Export Plug-In . SVG Version: 6.00 Build 0)  -->
<svg version="1.1" id="Layer_1" xmlns="http://www.w3.org/2000/svg" xmlns:xlink="http://www.w3.org/1999/xlink" x="0px" y="0px"
	 viewBox="0 0 150 150" style="enable-background:new 0 0 150 150;" xml:space="preserve">
<style type="text/css">
	.st0{fill:#E9D894;}
</style>
<polygon class="st0" points="73.9,40.1 73.9,73.2 55.8,73.2 48.1,60.2 48.1,73.2 40.7,73.2 40.7,40.1 54.7,40.1 62.5,53.2 
	62.5,40.1 "/>
<polygon class="st0" points="108.9,40.1 108.9,73.2 100.1,73.2 92.4,60.2 84.6,73.2 75.8,73.2 75.8,40.1 "/>
<polygon class="st0" points="108.9,74.8 108.9,108 100.1,108 92.4,95 84.6,108 75.8,108 75.8,74.8 "/>
<path class="st0" d="M63.6,101.2l4.1,6.8h-12L48,95v13h-7.3V74.8h19.8c7.4,0,13.4,6,13.4,13.4C73.9,94.5,69.5,99.8,63.6,101.2z"/>
<g>
	<g>
		<path class="st0" d="M40.9,32.3h0.5h0.5l1.8,5.3l0,0l1.8-5.3H46h0.5L44,38.5h-0.4h-0.5L40.9,32.3z"/>
		<path class="st0" d="M47.2,32.3h0.4H48v6.2h-0.4h-0.4V32.3z"/>
		<path class="st0" d="M51.3,32.3h0.4h0.5l2.2,6.2H54h-0.4L53,36.7h-2.5l-0.7,1.8h-0.4H49L51.3,32.3z M50.7,36h1.9l-0.9-2.8l0,0
			L50.7,36z"/>
	</g>
</g>
<g>
	<g>
		<path class="st0" d="M41.8,110h0.6v1.8h1v0.5h-1v4.4h-0.6v-4.4H41v-0.5h0.9V110H41.8z"/>
		<path class="st0" d="M44.6,109.9h0.6v2.8c0.3-0.3,0.5-0.6,0.8-0.8c0.3-0.2,0.6-0.3,1-0.3c0.4,0,0.7,0.1,1,0.3
			c0.3,0.2,0.5,0.4,0.6,0.8c0.1,0.3,0.2,0.8,0.2,1.5v2.5h-0.6v-2.4c0-0.6,0-0.9-0.1-1.1c-0.1-0.3-0.2-0.6-0.4-0.7
			c-0.2-0.2-0.5-0.2-0.8-0.2c-0.4,0-0.7,0.1-1,0.4c-0.3,0.3-0.5,0.6-0.6,0.9c-0.1,0.2-0.1,0.7-0.1,1.3v1.8h-0.6
			C44.6,116.7,44.6,109.9,44.6,109.9z"/>
		<path class="st0" d="M54.7,115.1l0.5,0.3c-0.2,0.3-0.4,0.6-0.6,0.8c-0.2,0.2-0.5,0.4-0.8,0.5s-0.6,0.2-1,0.2
			c-0.8,0-1.4-0.3-1.9-0.8s-0.7-1.1-0.7-1.8c0-0.6,0.2-1.2,0.6-1.7c0.5-0.6,1.1-0.9,2-0.9c0.8,0,1.5,0.3,2,1c0.4,0.5,0.5,1,0.5,1.7
			h-4.4c0,0.6,0.2,1,0.5,1.4c0.4,0.4,0.8,0.6,1.3,0.6c0.3,0,0.5,0,0.7-0.1s0.4-0.2,0.6-0.3C54.3,115.6,54.5,115.4,54.7,115.1z
			 M54.7,113.8c-0.1-0.3-0.2-0.6-0.4-0.8c-0.2-0.2-0.4-0.4-0.6-0.5c-0.3-0.1-0.5-0.2-0.8-0.2c-0.5,0-0.9,0.2-1.3,0.5
			c-0.3,0.2-0.4,0.6-0.6,1H54.7z"/>
		<path class="st0" d="M59.5,109.9h0.6v6.9h-0.6V109.9z"/>
		<path class="st0" d="M61.8,109.8c0.1,0,0.3,0.1,0.4,0.2c0.1,0.1,0.2,0.2,0.2,0.4c0,0.1-0.1,0.3-0.2,0.4c-0.1,0.1-0.2,0.2-0.4,0.2
			c-0.1,0-0.3-0.1-0.4-0.2c-0.1-0.1-0.2-0.2-0.2-0.4c0-0.1,0.1-0.3,0.2-0.4C61.6,109.8,61.7,109.8,61.8,109.8z M61.5,111.8h0.6v4.9
			h-0.6V111.8z"/>
		<path class="st0" d="M63.2,111.8h0.7l1.7,3.6l1.6-3.6h0.7l-2.3,4.9h-0.1L63.2,111.8z"/>
		<path class="st0" d="M69.3,109.8c0.1,0,0.3,0.1,0.4,0.2s0.2,0.2,0.2,0.4c0,0.1-0.1,0.3-0.2,0.4c-0.1,0.1-0.2,0.2-0.4,0.2
			c-0.1,0-0.3-0.1-0.4-0.2c-0.1-0.1-0.2-0.2-0.2-0.4c0-0.1,0.1-0.3,0.2-0.4C69,109.8,69.1,109.8,69.3,109.8z M69,111.8h0.6v4.9H69
			V111.8z"/>
		<path class="st0" d="M71.1,111.8h0.6v0.9c0.3-0.3,0.5-0.6,0.8-0.8c0.3-0.2,0.6-0.3,1-0.3s0.7,0.1,1,0.3c0.3,0.2,0.5,0.4,0.6,0.8
			c0.1,0.3,0.2,0.8,0.2,1.5v2.5h-0.6v-2.4c0-0.6,0-0.9-0.1-1.1c-0.1-0.3-0.2-0.6-0.4-0.7c-0.2-0.2-0.5-0.2-0.8-0.2
			c-0.4,0-0.7,0.1-1,0.4c-0.3,0.3-0.5,0.6-0.6,0.9c-0.1,0.2-0.1,0.7-0.1,1.3v1.8h-0.6C71.1,116.7,71.1,111.8,71.1,111.8z"/>
		<path class="st0" d="M81.3,111.8h0.6v3.9c0,0.7-0.1,1.2-0.2,1.5c-0.2,0.5-0.5,0.8-0.9,1s-0.9,0.4-1.5,0.4c-0.4,0-0.8-0.1-1.1-0.2
			c-0.3-0.1-0.6-0.3-0.8-0.5c-0.2-0.2-0.4-0.5-0.6-0.9h0.7c0.2,0.3,0.4,0.6,0.7,0.7c0.3,0.2,0.7,0.2,1.1,0.2c0.4,0,0.8-0.1,1.1-0.2
			c0.3-0.2,0.5-0.4,0.6-0.6s0.2-0.6,0.2-1.2v-0.3c-0.2,0.3-0.5,0.5-0.9,0.7c-0.3,0.2-0.7,0.2-1.1,0.2c-0.5,0-0.9-0.1-1.3-0.3
			c-0.4-0.2-0.7-0.5-0.9-0.9c-0.2-0.4-0.3-0.8-0.3-1.3s0.1-0.9,0.3-1.3c0.2-0.4,0.5-0.7,0.9-0.9c0.4-0.2,0.8-0.3,1.3-0.3
			c0.4,0,0.7,0.1,1,0.2c0.3,0.2,0.6,0.4,0.9,0.8v-0.7H81.3z M79.4,112.3c-0.4,0-0.7,0.1-1,0.3c-0.3,0.2-0.6,0.4-0.7,0.7
			c-0.2,0.3-0.3,0.6-0.3,1c0,0.5,0.2,1,0.5,1.3c0.4,0.4,0.8,0.5,1.4,0.5c0.6,0,1.1-0.2,1.4-0.5c0.4-0.4,0.5-0.8,0.5-1.4
			c0-0.4-0.1-0.7-0.2-1c-0.2-0.3-0.4-0.5-0.7-0.7C80,112.3,79.7,112.3,79.4,112.3z"/>
		<path class="st0" d="M88.7,112.3l-0.4,0.4c-0.3-0.3-0.7-0.5-1-0.5c-0.2,0-0.4,0.1-0.5,0.2s-0.2,0.3-0.2,0.5s0.1,0.3,0.2,0.5
			c0.1,0.1,0.4,0.3,0.8,0.5c0.5,0.2,0.8,0.5,1,0.7c0.2,0.2,0.3,0.5,0.3,0.8c0,0.4-0.1,0.7-0.4,1c-0.3,0.3-0.6,0.4-1.1,0.4
			c-0.3,0-0.6-0.1-0.8-0.2c-0.3-0.1-0.5-0.3-0.6-0.5l0.4-0.5c0.3,0.4,0.7,0.5,1,0.5c0.3,0,0.5-0.1,0.7-0.2c0.2-0.2,0.3-0.4,0.3-0.6
			s-0.1-0.3-0.2-0.5c-0.1-0.1-0.4-0.3-0.8-0.5c-0.4-0.2-0.7-0.5-0.9-0.7c-0.2-0.2-0.2-0.5-0.2-0.8c0-0.4,0.1-0.7,0.4-0.9
			c0.3-0.2,0.6-0.4,1-0.4C87.8,111.7,88.3,111.9,88.7,112.3z"/>
		<path class="st0" d="M90.6,110h0.6v1.8h1v0.5h-1v4.4h-0.6v-4.4h-0.9v-0.5h0.9V110z"/>
		<path class="st0" d="M92.9,111.8h0.7l1.7,3.8l1.6-3.8h0.7l-3,6.7h-0.7l1-2.2L92.9,111.8z"/>
		<path class="st0" d="M98.5,109.9h0.6v6.9h-0.6V109.9z"/>
		<path class="st0" d="M100.9,109.8c0.1,0,0.3,0.1,0.4,0.2s0.2,0.2,0.2,0.4c0,0.1-0.1,0.3-0.2,0.4s-0.2,0.2-0.4,0.2
			c-0.1,0-0.3-0.1-0.4-0.2s-0.2-0.2-0.2-0.4c0-0.1,0.1-0.3,0.2-0.4C100.6,109.8,100.8,109.8,100.9,109.8z M100.6,111.8h0.6v4.9h-0.6
			V111.8z"/>
		<path class="st0" d="M105.2,112.3l-0.4,0.4c-0.3-0.3-0.7-0.5-1-0.5c-0.2,0-0.4,0.1-0.5,0.2s-0.2,0.3-0.2,0.5s0.1,0.3,0.2,0.5
			c0.1,0.1,0.4,0.3,0.8,0.5c0.5,0.2,0.8,0.5,1,0.7s0.3,0.5,0.3,0.8c0,0.4-0.1,0.7-0.4,1s-0.6,0.4-1.1,0.4c-0.3,0-0.6-0.1-0.8-0.2
			c-0.3-0.1-0.5-0.3-0.6-0.5l0.4-0.5c0.3,0.4,0.7,0.5,1,0.5s0.5-0.1,0.7-0.2c0.2-0.2,0.3-0.4,0.3-0.6s-0.1-0.3-0.2-0.5
			c-0.1-0.1-0.4-0.3-0.8-0.5s-0.7-0.5-0.9-0.7c-0.2-0.2-0.2-0.5-0.2-0.8c0-0.4,0.1-0.7,0.4-0.9c0.3-0.2,0.6-0.4,1-0.4
			C104.3,111.7,104.8,111.9,105.2,112.3z"/>
		<path class="st0" d="M107.1,110h0.6v1.8h1v0.5h-1v4.4h-0.6v-4.4h-0.9v-0.5h0.9V110z"/>
	</g>
</g>
</svg>
