<?xml version="1.0" encoding="utf-8"?>
<!-- Generator: Adobe Illustrator 25.0.0, SVG Export Plug-In . SVG Version: 6.00 Build 0)  -->
<svg version="1.1" id="Layer_1" xmlns="http://www.w3.org/2000/svg" xmlns:xlink="http://www.w3.org/1999/xlink" x="0px" y="0px"
	 viewBox="0 0 82.4 118.5" style="enable-background:new 0 0 82.4 118.5;" xml:space="preserve">
<style type="text/css">
	.st0{fill:#EDDD97;}
</style>
<g>
	<g>
		<g>
			<path class="st0" d="M2.1,102.7h0.7v2h1.1v0.6H2.8v4.8H2.1v-4.8H1.1v-0.6h0.9V102.7z"/>
			<path class="st0" d="M5.1,102.6h0.7v3c0.3-0.4,0.6-0.6,0.9-0.8c0.3-0.2,0.7-0.3,1.1-0.3c0.4,0,0.8,0.1,1.1,0.3
				c0.3,0.2,0.5,0.5,0.6,0.8c0.1,0.4,0.2,0.9,0.2,1.6v2.8H8.9v-2.6c0-0.6,0-1.1-0.1-1.2c-0.1-0.4-0.2-0.6-0.5-0.8
				c-0.2-0.2-0.5-0.3-0.9-0.3c-0.4,0-0.8,0.1-1.1,0.4c-0.4,0.3-0.5,0.6-0.6,1.1c-0.1,0.3-0.1,0.8-0.1,1.5v2H4.9v-7.5H5.1z"/>
			<path class="st0" d="M15.7,108.4l0.6,0.3c-0.2,0.4-0.4,0.7-0.6,0.9s-0.5,0.4-0.8,0.5c-0.4,0.1-0.7,0.2-1.1,0.2
				c-0.9,0-1.5-0.3-2-0.9c-0.5-0.6-0.7-1.2-0.7-2c0-0.7,0.2-1.3,0.6-1.8c0.5-0.7,1.2-1.1,2.1-1.1s1.6,0.4,2.2,1.1
				c0.4,0.5,0.6,1.1,0.6,1.9h-4.7c0,0.6,0.2,1.2,0.6,1.5c0.4,0.4,0.8,0.6,1.4,0.6c0.3,0,0.5-0.1,0.8-0.1c0.2-0.1,0.5-0.2,0.6-0.4
				C15.3,109,15.5,108.7,15.7,108.4z M15.7,106.9c-0.1-0.4-0.2-0.6-0.4-0.9c-0.2-0.2-0.4-0.4-0.7-0.5s-0.6-0.2-0.9-0.2
				c-0.5,0-0.9,0.2-1.3,0.5c-0.3,0.2-0.5,0.6-0.6,1.1L15.7,106.9L15.7,106.9z"/>
			<path class="st0" d="M20.8,102.6h0.7v7.5h-0.7V102.6z"/>
			<path class="st0" d="M23.3,102.5c0.2,0,0.3,0.1,0.4,0.2s0.2,0.2,0.2,0.4s-0.1,0.3-0.2,0.4c-0.1,0.1-0.2,0.2-0.4,0.2
				c-0.2,0-0.3-0.1-0.4-0.2c-0.1-0.1-0.2-0.2-0.2-0.4s0.1-0.3,0.2-0.4C23,102.6,23.2,102.5,23.3,102.5z M23,104.8h0.7v5.4H23V104.8z
				"/>
			<path class="st0" d="M24.8,104.8h0.7l1.8,4l1.8-4h0.7l-2.4,5.4h-0.1L24.8,104.8z"/>
			<path class="st0" d="M31.2,102.5c0.2,0,0.3,0.1,0.4,0.2s0.2,0.2,0.2,0.4s-0.1,0.3-0.2,0.4c-0.1,0.1-0.2,0.2-0.4,0.2
				c-0.2,0-0.3-0.1-0.4-0.2c-0.1-0.1-0.2-0.2-0.2-0.4s0.1-0.3,0.2-0.4C30.9,102.6,31.1,102.5,31.2,102.5z M30.9,104.8h0.7v5.4h-0.7
				V104.8z"/>
			<path class="st0" d="M33.2,104.8h0.7v1c0.3-0.4,0.6-0.6,0.9-0.8c0.3-0.2,0.7-0.3,1.1-0.3c0.4,0,0.8,0.1,1.1,0.3s0.5,0.5,0.6,0.8
				c0.1,0.4,0.2,0.9,0.2,1.6v2.8H37v-2.6c0-0.6,0-1.1-0.1-1.2c-0.1-0.4-0.2-0.6-0.5-0.8s-0.5-0.3-0.9-0.3c-0.4,0-0.8,0.1-1.1,0.4
				c-0.4,0.3-0.5,0.6-0.6,1.1c-0.1,0.3-0.1,0.8-0.1,1.5v2h-0.7v-5.4H33.2z"/>
			<path class="st0" d="M44,104.8h0.7v4.3c0,0.8-0.1,1.3-0.2,1.7c-0.2,0.5-0.5,0.9-0.9,1.2c-0.4,0.3-0.9,0.4-1.6,0.4
				c-0.5,0-0.9-0.1-1.2-0.2c-0.4-0.1-0.6-0.3-0.9-0.5c-0.2-0.2-0.4-0.5-0.6-1H40c0.2,0.4,0.5,0.6,0.8,0.8c0.3,0.2,0.7,0.2,1.2,0.2
				s0.9-0.1,1.2-0.3c0.3-0.2,0.5-0.4,0.7-0.6c0.1-0.3,0.2-0.7,0.2-1.3v-0.4c-0.2,0.4-0.6,0.6-0.9,0.8c-0.4,0.2-0.8,0.3-1.2,0.3
				c-0.5,0-0.9-0.1-1.3-0.4c-0.4-0.2-0.8-0.6-1-1c-0.2-0.4-0.4-0.9-0.4-1.4s0.1-1,0.4-1.4c0.2-0.4,0.6-0.8,1-1.1
				c0.4-0.2,0.9-0.4,1.3-0.4c0.4,0,0.8,0.1,1.1,0.2c0.4,0.2,0.6,0.5,1,0.8C44,105.7,44,104.8,44,104.8z M42,105.3
				c-0.4,0-0.8,0.1-1.1,0.3c-0.4,0.2-0.6,0.5-0.8,0.8c-0.2,0.4-0.3,0.7-0.3,1.1c0,0.6,0.2,1.1,0.6,1.5c0.4,0.4,0.9,0.6,1.5,0.6
				s1.1-0.2,1.5-0.6c0.4-0.4,0.6-0.9,0.6-1.5c0-0.4-0.1-0.8-0.2-1.1s-0.4-0.6-0.8-0.8C42.7,105.3,42.3,105.3,42,105.3z"/>
			<path class="st0" d="M51.9,105.3l-0.4,0.5c-0.4-0.4-0.7-0.5-1.1-0.5c-0.2,0-0.4,0.1-0.6,0.2c-0.2,0.2-0.2,0.4-0.2,0.5
				c0,0.2,0.1,0.4,0.2,0.5c0.1,0.2,0.4,0.4,0.8,0.6c0.5,0.3,0.8,0.5,1,0.8c0.2,0.2,0.3,0.5,0.3,0.9c0,0.5-0.2,0.8-0.5,1.1
				c-0.3,0.3-0.7,0.5-1.1,0.5c-0.3,0-0.6-0.1-0.9-0.2s-0.5-0.4-0.7-0.6l0.4-0.5c0.4,0.4,0.7,0.6,1.1,0.6c0.3,0,0.5-0.1,0.7-0.3
				c0.2-0.2,0.3-0.4,0.3-0.6c0-0.2-0.1-0.4-0.2-0.5c-0.1-0.2-0.4-0.4-0.9-0.6c-0.5-0.2-0.8-0.5-1-0.8c-0.2-0.2-0.2-0.5-0.2-0.8
				c0-0.4,0.1-0.8,0.4-1.1c0.3-0.3,0.6-0.4,1.1-0.4C50.9,104.6,51.4,104.9,51.9,105.3z"/>
			<path class="st0" d="M53.9,102.7h0.7v2h1.1v0.6h-1.1v4.8h-0.7v-4.8H53v-0.6h0.9V102.7z"/>
			<path class="st0" d="M56.3,104.8H57l1.8,4.2l1.8-4.2h0.7l-3.1,7.4h-0.7l1-2.4L56.3,104.8z"/>
			<path class="st0" d="M62.3,102.6H63v7.5h-0.7V102.6z"/>
			<path class="st0" d="M64.8,102.5c0.2,0,0.3,0.1,0.4,0.2s0.2,0.2,0.2,0.4s-0.1,0.3-0.2,0.4c-0.1,0.1-0.2,0.2-0.4,0.2
				c-0.2,0-0.3-0.1-0.4-0.2c-0.1-0.1-0.2-0.2-0.2-0.4s0.1-0.3,0.2-0.4S64.7,102.5,64.8,102.5z M64.5,104.8h0.7v5.4h-0.7V104.8z"/>
			<path class="st0" d="M69.4,105.3l-0.4,0.5c-0.4-0.4-0.7-0.5-1.1-0.5c-0.2,0-0.4,0.1-0.6,0.2c-0.2,0.2-0.2,0.4-0.2,0.5
				c0,0.2,0.1,0.4,0.2,0.5c0.1,0.2,0.4,0.4,0.8,0.6c0.5,0.3,0.8,0.5,1,0.8c0.2,0.2,0.3,0.5,0.3,0.9c0,0.5-0.2,0.8-0.5,1.1
				c-0.3,0.3-0.7,0.5-1.1,0.5c-0.3,0-0.6-0.1-0.9-0.2c-0.3-0.1-0.5-0.4-0.7-0.6l0.4-0.5c0.4,0.4,0.7,0.6,1.1,0.6
				c0.3,0,0.5-0.1,0.7-0.3c0.2-0.2,0.3-0.4,0.3-0.6c0-0.2-0.1-0.4-0.2-0.5c-0.1-0.2-0.4-0.4-0.9-0.6c-0.5-0.2-0.8-0.5-1-0.8
				c-0.2-0.2-0.2-0.5-0.2-0.8c0-0.4,0.1-0.8,0.4-1.1c0.3-0.3,0.6-0.4,1.1-0.4C68.4,104.6,68.9,104.9,69.4,105.3z"/>
			<path class="st0" d="M71.4,102.7h0.7v2h1.1v0.6h-1.1v4.8h-0.7v-4.8h-0.9v-0.6h0.9V102.7z"/>
		</g>
	</g>
	<polygon class="st0" points="36.1,23.5 36.1,60 16.9,60 8.8,45.6 8.8,60 1,60 1,23.5 15.7,23.5 23.9,37.9 23.9,23.5 	"/>
	<polygon class="st0" points="73.3,23.5 73.3,60 63.9,60 55.7,45.6 47.5,60 38.1,60 38.1,23.5 	"/>
	<polygon class="st0" points="73.3,61.6 73.3,98 63.9,98 55.7,83.8 47.5,98 38.1,98 38.1,61.6 	"/>
	<path class="st0" d="M25.3,90.5l4.3,7.5H16.8L8.6,83.8V98H1V61.6h21c7.8,0,14.2,6.6,14.2,14.6C36.1,83.2,31.5,88.9,25.3,90.5z"/>
	<g>
		<g>
			<path class="st0" d="M1.1,4.2h1.2h1.2l4.8,15.1l0,0l5-15.1h1.2h1.2L9.7,21.8H8.4H7.4L1.1,4.2z"/>
			<path class="st0" d="M18.5,4.2h1.1h1.2v17.6h-1.1h-1.2V4.2z"/>
			<path class="st0" d="M29.7,4.2H31h1.2l6,17.6H37h-1.2L34,16.6h-6.8l-1.8,5.2h-1.2H23L29.7,4.2z M28.3,14.7h5.3L31,6.8l0,0
				L28.3,14.7z"/>
		</g>
	</g>
</g>
</svg>
