<?xml version="1.0" encoding="utf-8"?>
<!-- Generator: Adobe Illustrator 25.0.0, SVG Export Plug-In . SVG Version: 6.00 Build 0)  -->
<svg version="1.1" id="Layer_1" xmlns="http://www.w3.org/2000/svg" xmlns:xlink="http://www.w3.org/1999/xlink" x="0px" y="0px"
	 viewBox="0 0 177.5 90" style="enable-background:new 0 0 177.5 90;" xml:space="preserve">
<style type="text/css">
	.st0{fill:#FFFFFF;}
	.st1{fill:#1A1A1A;stroke:#1A1A1A;stroke-miterlimit:10;}
	.st2{fill:#383A3C;}
	.st3{font-family:'MyriadPro-Regular';}
	.st4{font-size:21px;}
</style>
<g>
	<rect class="st0" width="90" height="90"/>
	<path class="st1" d="M4.3,152.1L4.3,152.1L4.3,152.1c0-0.1,0-0.1,0-0.1l0,0l-7.4-12.8l3.6-6.3l0,0l0,0l0,0l0,0l0,0l0,0l0,0l0,0l0,0
		l0,0l-11.1-19.6l0,0l0,0l0,0l0,0c0,0,0,0-0.1,0l0,0h-7.5l0,0l0,0l0,0l0,0l0,0l0,0l0,0l0,0l0,0l0,0L-26,126h-7.2l0,0l0,0l0,0l0,0
		l0,0l0,0l0,0l0,0l0,0l0,0l-11.5,19.5l0,0c0,0,0,0,0,0.1c0,0,0,0,0,0.1c0,0,0,0,0,0.1c0,0,0,0,0,0.1l0,0l3.7,6.5l0,0l0,0l0,0l0,0
		l0,0l0,0h0.1l0,0l0,0l0,0h14.7l3.6,6.3l0,0l0,0l0,0l0,0l0,0l0,0h0.1l0,0l0,0l0,0h22.4H0l0,0c0,0,0.1,0,0.1-0.1l0,0l3.7-6.5l0,0l0,0
		C4.3,152.2,4.3,152.2,4.3,152.1C4.3,152.2,4.3,152.2,4.3,152.1C4.3,152.2,4.3,152.1,4.3,152.1L4.3,152.1z M0.1,158.3h-21.7l3.4-5.9
		H3.5L0.1,158.3z M-29.2,145.7l3.4-5.9l7.1,12.4l-3.4,5.8L-29.2,145.7z M3.5,151.9h-21.7l-7.1-12.4h6.8l3.6,6.3l0,0l0,0l0,0l0,0l0,0
		l0,0h0.1l0,0l0,0l0,0h7.6h0.1l0,0c0,0,0.1,0,0.1-0.1l0,0l3.5-6L3.5,151.9z M-44.1,145.7l10.9-18.8l3.4,5.9l-10.9,18.8L-44.1,145.7z
		 M-29.4,132.5l-3.4-5.9h7h7.3l3.4,5.9H-29.4z M-14.4,132.9L-14.4,132.9L-14.4,132.9C-14.3,132.8-14.3,132.8-14.4,132.9
		c0-0.1,0-0.1,0-0.1l0,0l0,0l0,0l0,0l0,0l0,0l-3.7-6.5l0,0l0,0l0,0l0,0c0,0,0,0-0.1,0l0,0h-7l7-12.1L-7.3,133l-7.1,12.4l-3.4-5.9
		L-14.4,132.9z M-11,113.7l10.8,18.8H-7l-10.9-18.8H-11z M-7.3,145.4h-6.8L-7,133h6.8L-7.3,145.4z M-40.2,151.9l10.8-18.9h14.3
		l-3.4,6h-7.3l0,0l0,0l0,0l0,0l0,0l0,0l0,0l0,0l0,0l0,0l-3.7,6.5l0,0c0,0,0,0,0,0.1c0,0,0,0,0,0.1c0,0,0,0,0,0.1c0,0,0,0,0,0.1l0,0
		l3.5,6C-26,151.9-40.2,151.9-40.2,151.9z"/>
</g>
<g>
	<path class="st0" d="M267.6,85.4v-1h7v1h-3v8.7h-1.1v-8.7C270.5,85.4,267.6,85.4,267.6,85.4z"/>
	<path class="st0" d="M283.1,94.1v-4.4h-4.9v4.4h-1.1v-9.7h1.1v4.3h4.9v-4.3h1.1v9.7H283.1z"/>
	<path class="st0" d="M287.6,94.1v-9.7h5.9v1h-4.8v3.3h4v0.9h-4v3.5h4.8v1H287.6z"/>
	<path class="st0" d="M297.4,90.4v3.7h-1.1v-9.7h3.6c1,0,1.8,0.2,2.3,0.7s0.8,1.2,0.8,2.2c0,1.5-0.6,2.4-1.8,2.8l1.9,3.9h-1.2
		l-1.8-3.7L297.4,90.4L297.4,90.4z M300,89.5c1.3,0,2-0.7,2-2c0-1.4-0.7-2-2-2h-2.5v4.1h2.5V89.5z"/>
	<path class="st0" d="M305.1,94.1l2.7-9.7h2.4l2.7,9.7h-1.1l-0.7-2.5H307l-0.7,2.5H305.1z M308.6,85.4l-1.5,5.3h3.7l-1.5-5.3
		C309.3,85.4,308.6,85.4,308.6,85.4z"/>
	<path class="st0" d="M313.7,85.4v-1h7v1h-3v8.7h-1.1v-8.7C316.6,85.4,313.7,85.4,313.7,85.4z"/>
	<path class="st0" d="M323.1,94.1v-9.7h1.1v9.7H323.1z"/>
	<path class="st0" d="M334.8,89.4c0,1.7-0.3,3-0.8,3.8c-0.6,0.8-1.6,1.2-3,1.2s-2.5-0.4-3-1.2c-0.5-0.8-0.8-2-0.8-3.7
		c0-1.7,0.3-3,0.8-3.8c0.6-0.8,1.6-1.2,3-1.2s2.4,0.4,3,1.2C334.6,86.4,334.8,87.6,334.8,89.4z M328.3,89.3c0,1.4,0.2,2.4,0.6,3.1
		c0.4,0.6,1.1,0.9,2.2,0.9c1.1,0,1.8-0.3,2.2-0.9s0.6-1.6,0.6-3.1c0-1.4-0.2-2.5-0.6-3.1c-0.4-0.7-1.1-1-2.1-1s-1.8,0.3-2.1,1
		C328.5,86.9,328.3,87.9,328.3,89.3z"/>
	<path class="st0" d="M268.7,110.9v-9.7h1.1v9.7H268.7z"/>
	<path class="st0" d="M273.1,110.9v-9.7h2l3.7,8.7h0.3v-8.7h1.1v9.7h-2l-3.8-8.7h-0.3v8.7H273.1z"/>
	<path class="st0" d="M282.7,102.2v-1h7v1h-3v8.7h-1.1v-8.7H282.7z"/>
	<path class="st0" d="M292.1,110.9v-9.7h5.9v1h-4.8v3.3h4v0.9h-4v3.6h4.8v1L292.1,110.9L292.1,110.9z"/>
	<path class="st0" d="M301.9,107.2v3.7h-1.1v-9.7h3.6c1,0,1.8,0.2,2.3,0.7s0.8,1.2,0.8,2.2c0,1.5-0.6,2.4-1.8,2.8l1.9,3.9h-1.2
		l-1.8-3.7L301.9,107.2L301.9,107.2z M304.5,106.3c1.3,0,2-0.7,2-2c0-1.4-0.7-2-2-2H302v4.1L304.5,106.3L304.5,106.3z"/>
	<path class="st0" d="M310.5,110.9v-9.7h1.1v9.7H310.5z"/>
	<path class="st0" d="M322.3,106.2c0,1.7-0.3,3-0.8,3.8c-0.6,0.8-1.6,1.2-3,1.2s-2.5-0.4-3-1.2c-0.5-0.8-0.8-2-0.8-3.7
		c0-1.7,0.3-3,0.8-3.8c0.6-0.8,1.6-1.2,3-1.2s2.4,0.4,3,1.2C322,103.2,322.3,104.4,322.3,106.2z M315.7,106.1c0,1.4,0.2,2.4,0.6,3.1
		c0.4,0.6,1.1,0.9,2.2,0.9c1.1,0,1.8-0.3,2.2-0.9c0.4-0.6,0.6-1.6,0.6-3.1c0-1.4-0.2-2.5-0.6-3.1c-0.4-0.7-1.1-1-2.1-1
		s-1.8,0.3-2.1,1C315.9,103.7,315.7,104.7,315.7,106.1z"/>
	<path class="st0" d="M326.4,107.2v3.7h-1.1v-9.7h3.6c1,0,1.8,0.2,2.3,0.7s0.8,1.2,0.8,2.2c0,1.5-0.6,2.4-1.8,2.8l1.9,3.9h-1.2
		l-1.8-3.7L326.4,107.2L326.4,107.2z M328.9,106.3c1.3,0,2-0.7,2-2c0-1.4-0.7-2-2-2h-2.5v4.1L328.9,106.3L328.9,106.3z"/>
	<path class="st0" d="M271.3,118.8c-1.4,0-2.1,0.5-2.1,1.6c0,0.6,0.2,1,0.5,1.2c0.3,0.2,1,0.4,2,0.7c1,0.2,1.7,0.5,2.1,0.9
		c0.4,0.3,0.6,0.9,0.6,1.7c0,2-1,3-3.1,3c-0.7,0-1.5-0.1-2.6-0.2l-0.5-0.1l0.1-0.9c1.3,0.2,2.2,0.3,2.9,0.3c1.4,0,2.1-0.6,2.1-1.9
		c0-0.5-0.2-0.9-0.5-1.1c-0.3-0.2-0.9-0.4-1.7-0.6c-1.1-0.2-1.9-0.5-2.3-0.9c-0.5-0.4-0.7-1-0.7-1.9c0-1.7,1-2.6,3.1-2.6
		c0.7,0,1.5,0.1,2.5,0.2l0.5,0.1l-0.1,0.9C272.8,118.9,271.9,118.8,271.3,118.8z"/>
	<path class="st0" d="M276.3,119v-1h7v1h-3v8.7h-1V119H276.3z"/>
	<path class="st0" d="M286.7,124.8c0,1.4,0.8,2.1,2.3,2.1c0.8,0,1.4-0.2,1.8-0.5s0.6-0.9,0.6-1.6V118h1.1v6.7c0,1.1-0.3,1.9-0.9,2.4
		c-0.6,0.5-1.4,0.7-2.5,0.7s-2-0.2-2.5-0.7s-0.8-1.3-0.8-2.4V118h1.1v6.8H286.7z"/>
	<path class="st0" d="M299.2,127.7h-3.5V118h3.5c1.6,0,2.6,0.6,3.1,1.9c0.3,0.7,0.4,1.7,0.4,2.8c0,2.4-0.6,4-1.8,4.6
		C300.5,127.6,299.9,127.7,299.2,127.7z M301.7,122.7c0-1.9-0.4-3-1.2-3.5c-0.3-0.2-0.7-0.3-1.2-0.3h-2.4v7.8h2.4
		C300.9,126.8,301.7,125.4,301.7,122.7z"/>
	<path class="st0" d="M305.9,127.7V118h1.1v9.7H305.9z"/>
	<path class="st0" d="M317.6,123c0,1.7-0.3,3-0.8,3.8c-0.6,0.8-1.6,1.2-3,1.2s-2.5-0.4-3-1.2s-0.8-2-0.8-3.7c0-1.7,0.3-3,0.8-3.8
		c0.6-0.8,1.6-1.2,3-1.2s2.4,0.4,3,1.2C317.3,120,317.6,121.2,317.6,123z M311.1,122.9c0,1.4,0.2,2.4,0.6,3.1
		c0.4,0.6,1.1,0.9,2.2,0.9c1.1,0,1.8-0.3,2.2-0.9s0.6-1.6,0.6-3.1c0-1.4-0.2-2.5-0.6-3.1c-0.4-0.7-1.1-1-2.1-1s-1.8,0.3-2.1,1
		C311.2,120.5,311.1,121.5,311.1,122.9z"/>
</g>
<polygon class="st2" points="42.5,12.7 42.5,42.4 26.3,42.4 19.4,30.8 19.4,42.4 12.8,42.4 12.8,12.7 25.3,12.7 32.3,24.5 
	32.3,12.7 "/>
<polygon class="st2" points="73.8,12.7 73.8,42.4 65.8,42.4 58.9,30.8 52,42.4 44.1,42.4 44.1,12.7 "/>
<polygon class="st2" points="73.8,43.8 73.8,73.4 65.8,73.4 58.9,61.8 52,73.4 44.1,73.4 44.1,43.8 "/>
<path class="st2" d="M33.3,67.3l3.6,6.1H26.3l-6.9-11.6v11.6h-6.5V43.8h17.7c6.6,0,11.9,5.3,11.9,11.9
	C42.5,61.3,38.6,66.1,33.3,67.3z"/>
<g>
	<g>
		<path class="st2" d="M13,5.8h0.4h0.4l1.6,4.7h0L17,5.8h0.4h0.4l-2,5.5h-0.4H15L13,5.8z"/>
		<path class="st2" d="M18.6,5.8H19h0.4v5.5H19h-0.4V5.8z"/>
		<path class="st2" d="M22.2,5.8h0.4h0.4l2,5.5h-0.4h-0.4l-0.6-1.6h-2.2l-0.6,1.6h-0.4h-0.4L22.2,5.8z M21.8,9.1h1.7l-0.8-2.4h0
			L21.8,9.1z"/>
	</g>
</g>
<g>
	<g>
		<path class="st2" d="M13.8,75.2h0.6v1.6h0.9v0.5h-0.9v3.9h-0.6v-3.9h-0.8v-0.5h0.8V75.2z"/>
		<path class="st2" d="M16.3,75.1h0.6v2.5c0.2-0.3,0.5-0.5,0.8-0.7c0.3-0.2,0.6-0.2,0.9-0.2c0.3,0,0.6,0.1,0.9,0.3
			c0.3,0.2,0.4,0.4,0.6,0.7s0.2,0.7,0.2,1.3v2.3h-0.6v-2.1c0-0.5,0-0.8-0.1-1c-0.1-0.3-0.2-0.5-0.4-0.7c-0.2-0.1-0.4-0.2-0.7-0.2
			c-0.3,0-0.7,0.1-0.9,0.3c-0.3,0.2-0.5,0.5-0.5,0.8c-0.1,0.2-0.1,0.6-0.1,1.2v1.6h-0.6V75.1z"/>
		<path class="st2" d="M25.3,79.8l0.5,0.3c-0.2,0.3-0.3,0.6-0.5,0.7c-0.2,0.2-0.4,0.3-0.7,0.4c-0.3,0.1-0.5,0.1-0.9,0.1
			c-0.7,0-1.3-0.2-1.7-0.7c-0.4-0.5-0.6-1-0.6-1.6c0-0.6,0.2-1.1,0.5-1.5c0.4-0.6,1-0.8,1.8-0.8c0.8,0,1.4,0.3,1.8,0.9
			c0.3,0.4,0.5,0.9,0.5,1.5h-4c0,0.5,0.2,0.9,0.5,1.3c0.3,0.3,0.7,0.5,1.2,0.5c0.2,0,0.4,0,0.7-0.1c0.2-0.1,0.4-0.2,0.5-0.3
			C25,80.3,25.1,80,25.3,79.8z M25.3,78.6c-0.1-0.3-0.2-0.5-0.3-0.7s-0.3-0.3-0.6-0.4c-0.2-0.1-0.5-0.2-0.8-0.2
			c-0.4,0-0.8,0.1-1.1,0.4c-0.2,0.2-0.4,0.5-0.5,0.9H25.3z"/>
		<path class="st2" d="M29.6,75.1h0.6v6.1h-0.6V75.1z"/>
		<path class="st2" d="M31.7,75c0.1,0,0.2,0,0.3,0.1s0.1,0.2,0.1,0.3c0,0.1,0,0.2-0.1,0.3s-0.2,0.1-0.3,0.1c-0.1,0-0.2,0-0.3-0.1
			c-0.1-0.1-0.1-0.2-0.1-0.3c0-0.1,0-0.2,0.1-0.3C31.5,75,31.6,75,31.7,75z M31.4,76.8H32v4.4h-0.6V76.8z"/>
		<path class="st2" d="M32.9,76.8h0.6L35,80l1.5-3.2h0.6l-2,4.4H35L32.9,76.8z"/>
		<path class="st2" d="M38.3,75c0.1,0,0.2,0,0.3,0.1c0.1,0.1,0.1,0.2,0.1,0.3c0,0.1,0,0.2-0.1,0.3c-0.1,0.1-0.2,0.1-0.3,0.1
			c-0.1,0-0.2,0-0.3-0.1s-0.1-0.2-0.1-0.3c0-0.1,0-0.2,0.1-0.3S38.2,75,38.3,75z M38.1,76.8h0.6v4.4h-0.6V76.8z"/>
		<path class="st2" d="M40,76.8h0.6v0.8c0.2-0.3,0.5-0.5,0.8-0.7s0.6-0.2,0.9-0.2c0.3,0,0.6,0.1,0.9,0.3c0.3,0.2,0.4,0.4,0.6,0.7
			s0.2,0.7,0.2,1.3v2.3h-0.6v-2.1c0-0.5,0-0.8-0.1-1c-0.1-0.3-0.2-0.5-0.4-0.7c-0.2-0.1-0.4-0.2-0.7-0.2c-0.3,0-0.7,0.1-0.9,0.3
			c-0.3,0.2-0.5,0.5-0.5,0.8c-0.1,0.2-0.1,0.6-0.1,1.2v1.6H40V76.8z"/>
		<path class="st2" d="M49,76.8h0.6v3.5c0,0.6-0.1,1.1-0.2,1.4c-0.1,0.4-0.4,0.7-0.8,0.9c-0.4,0.2-0.8,0.3-1.3,0.3
			c-0.4,0-0.7-0.1-1-0.2c-0.3-0.1-0.5-0.3-0.7-0.4c-0.2-0.2-0.4-0.4-0.5-0.8h0.6c0.2,0.3,0.4,0.5,0.7,0.6c0.3,0.1,0.6,0.2,1,0.2
			c0.4,0,0.7-0.1,1-0.2c0.3-0.1,0.5-0.3,0.6-0.5c0.1-0.2,0.2-0.6,0.2-1.1v-0.2c-0.2,0.3-0.5,0.5-0.8,0.6c-0.3,0.1-0.6,0.2-1,0.2
			c-0.4,0-0.8-0.1-1.1-0.3c-0.4-0.2-0.6-0.5-0.8-0.8C45.1,79.8,45,79.4,45,79c0-0.4,0.1-0.8,0.3-1.1c0.2-0.4,0.5-0.6,0.8-0.8
			c0.4-0.2,0.7-0.3,1.1-0.3c0.3,0,0.6,0.1,0.9,0.2c0.3,0.1,0.6,0.4,0.8,0.7V76.8z M47.4,77.2c-0.3,0-0.6,0.1-0.9,0.2
			c-0.3,0.2-0.5,0.4-0.6,0.6c-0.2,0.3-0.2,0.6-0.2,0.9c0,0.5,0.2,0.9,0.5,1.2c0.3,0.3,0.7,0.5,1.3,0.5c0.5,0,0.9-0.2,1.3-0.5
			c0.3-0.3,0.5-0.7,0.5-1.2c0-0.3-0.1-0.6-0.2-0.9s-0.4-0.5-0.6-0.6C48,77.3,47.7,77.2,47.4,77.2z"/>
		<path class="st2" d="M55.7,77.3l-0.4,0.4c-0.3-0.3-0.6-0.4-0.9-0.4c-0.2,0-0.3,0.1-0.5,0.2c-0.1,0.1-0.2,0.3-0.2,0.4
			c0,0.1,0.1,0.3,0.2,0.4c0.1,0.1,0.3,0.3,0.7,0.5c0.4,0.2,0.7,0.4,0.9,0.6c0.1,0.2,0.2,0.4,0.2,0.7c0,0.4-0.1,0.7-0.4,0.9
			c-0.3,0.3-0.6,0.4-1,0.4c-0.3,0-0.5-0.1-0.7-0.2c-0.2-0.1-0.4-0.3-0.6-0.5l0.4-0.4c0.3,0.3,0.6,0.5,0.9,0.5c0.2,0,0.4-0.1,0.6-0.2
			c0.2-0.1,0.2-0.3,0.2-0.5c0-0.2-0.1-0.3-0.2-0.4c-0.1-0.1-0.3-0.3-0.7-0.5c-0.4-0.2-0.7-0.4-0.8-0.6c-0.1-0.2-0.2-0.4-0.2-0.7
			c0-0.3,0.1-0.6,0.3-0.8c0.2-0.2,0.5-0.3,0.9-0.3C54.9,76.7,55.3,76.9,55.7,77.3z"/>
		<path class="st2" d="M57.4,75.2H58v1.6h0.9v0.5H58v3.9h-0.6v-3.9h-0.8v-0.5h0.8V75.2z"/>
		<path class="st2" d="M59.4,76.8H60l1.5,3.4l1.5-3.4h0.6l-2.6,6h-0.6l0.8-1.9L59.4,76.8z"/>
		<path class="st2" d="M64.5,75.1H65v6.1h-0.6V75.1z"/>
		<path class="st2" d="M66.6,75c0.1,0,0.2,0,0.3,0.1c0.1,0.1,0.1,0.2,0.1,0.3c0,0.1,0,0.2-0.1,0.3c-0.1,0.1-0.2,0.1-0.3,0.1
			c-0.1,0-0.2,0-0.3-0.1s-0.1-0.2-0.1-0.3c0-0.1,0-0.2,0.1-0.3S66.5,75,66.6,75z M66.3,76.8h0.6v4.4h-0.6V76.8z"/>
		<path class="st2" d="M70.5,77.3l-0.4,0.4c-0.3-0.3-0.6-0.4-0.9-0.4c-0.2,0-0.3,0.1-0.5,0.2c-0.1,0.1-0.2,0.3-0.2,0.4
			c0,0.1,0.1,0.3,0.2,0.4c0.1,0.1,0.3,0.3,0.7,0.5c0.4,0.2,0.7,0.4,0.9,0.6c0.1,0.2,0.2,0.4,0.2,0.7c0,0.4-0.1,0.7-0.4,0.9
			c-0.3,0.3-0.6,0.4-1,0.4c-0.3,0-0.5-0.1-0.7-0.2c-0.2-0.1-0.4-0.3-0.6-0.5l0.4-0.4c0.3,0.3,0.6,0.5,0.9,0.5c0.2,0,0.4-0.1,0.6-0.2
			s0.2-0.3,0.2-0.5c0-0.2-0.1-0.3-0.2-0.4c-0.1-0.1-0.3-0.3-0.7-0.5c-0.4-0.2-0.7-0.4-0.8-0.6c-0.1-0.2-0.2-0.4-0.2-0.7
			c0-0.3,0.1-0.6,0.3-0.8c0.2-0.2,0.5-0.3,0.9-0.3C69.6,76.7,70,76.9,70.5,77.3z"/>
		<path class="st2" d="M72.1,75.2h0.6v1.6h0.9v0.5h-0.9v3.9h-0.6v-3.9h-0.8v-0.5h0.8V75.2z"/>
	</g>
</g>
<text transform="matrix(1 0 0 1 107.2312 28.4617)"><tspan x="0" y="0" class="st0 st3 st4">LIVING </tspan><tspan x="0" y="24" class="st0 st3 st4">WITH</tspan><tspan x="0" y="48" class="st0 st3 st4">STYLE</tspan></text>
</svg>
