<?xml version="1.0" encoding="utf-8"?>
<!-- Generator: Adobe Illustrator 25.0.0, SVG Export Plug-In . SVG Version: 6.00 Build 0)  -->
<svg version="1.1" id="Layer_1" xmlns="http://www.w3.org/2000/svg" xmlns:xlink="http://www.w3.org/1999/xlink" x="0px" y="0px"
	 viewBox="0 0 177.5 90" style="enable-background:new 0 0 177.5 90;" xml:space="preserve">
<style type="text/css">
	.st0{display:none;fill:#531510;}
	.st1{display:none;}
	.st2{display:inline;fill:#FFFFFF;}
	.st3{fill:#1A1A1A;stroke:#1A1A1A;stroke-miterlimit:10;}
	.st4{fill:#FFFFFF;}
	.st5{fill:#383A3C;}
	.st6{fill:#E8D894;}
</style>
<rect class="st0" width="90" height="90"/>
<g class="st1">
	<rect class="st2" width="90" height="90"/>
	<path class="st3" d="M4.3,152.1L4.3,152.1L4.3,152.1c0-0.1,0-0.1,0-0.1l0,0l-7.4-12.8l3.6-6.3l0,0l0,0l0,0l0,0l0,0l0,0l0,0l0,0l0,0
		l0,0l-11.1-19.6l0,0l0,0l0,0l0,0c0,0,0,0-0.1,0l0,0h-7.5l0,0l0,0l0,0l0,0l0,0l0,0l0,0l0,0l0,0l0,0L-26,126h-7.2l0,0l0,0l0,0l0,0
		l0,0l0,0l0,0l0,0l0,0l0,0l-11.5,19.5l0,0c0,0,0,0,0,0.1c0,0,0,0,0,0.1c0,0,0,0,0,0.1c0,0,0,0,0,0.1l0,0l3.7,6.5l0,0l0,0l0,0l0,0
		l0,0l0,0h0.1l0,0l0,0l0,0h14.7l3.6,6.3l0,0l0,0l0,0l0,0l0,0l0,0h0.1l0,0l0,0l0,0h22.4H0l0,0c0,0,0.1,0,0.1-0.1l0,0l3.7-6.5l0,0l0,0
		C4.3,152.2,4.3,152.2,4.3,152.1C4.3,152.2,4.3,152.2,4.3,152.1C4.3,152.2,4.3,152.1,4.3,152.1L4.3,152.1z M0.1,158.3h-21.7l3.4-5.9
		H3.5L0.1,158.3z M-29.2,145.7l3.4-5.9l7.1,12.4l-3.4,5.8L-29.2,145.7z M3.5,151.9h-21.7l-7.1-12.4h6.8l3.6,6.3l0,0l0,0l0,0l0,0l0,0
		l0,0h0.1l0,0l0,0l0,0h7.6h0.1l0,0c0,0,0.1,0,0.1-0.1l0,0l3.5-6L3.5,151.9z M-44.1,145.7l10.9-18.8l3.4,5.9l-10.9,18.8L-44.1,145.7z
		 M-29.4,132.5l-3.4-5.9h7h7.3l3.4,5.9H-29.4z M-14.4,132.9L-14.4,132.9L-14.4,132.9C-14.3,132.8-14.3,132.8-14.4,132.9
		c0-0.1,0-0.1,0-0.1l0,0l0,0l0,0l0,0l0,0l0,0l-3.7-6.5l0,0l0,0l0,0l0,0c0,0,0,0-0.1,0l0,0h-7l7-12.1L-7.3,133l-7.1,12.4l-3.4-5.9
		L-14.4,132.9z M-11,113.7l10.8,18.8H-7l-10.9-18.8H-11z M-7.3,145.4h-6.8L-7,133h6.8L-7.3,145.4z M-40.2,151.9l10.8-18.9h14.3
		l-3.4,6h-7.3l0,0l0,0l0,0l0,0l0,0l0,0l0,0l0,0l0,0l0,0l-3.7,6.5l0,0c0,0,0,0,0,0.1c0,0,0,0,0,0.1c0,0,0,0,0,0.1c0,0,0,0,0,0.1l0,0
		l3.5,6C-26,151.9-40.2,151.9-40.2,151.9z"/>
</g>
<g>
	<path class="st4" d="M267.6,85.4v-1h7v1h-3v8.7h-1.1v-8.7H267.6z"/>
	<path class="st4" d="M283.1,94.1v-4.4h-4.9v4.4h-1.1v-9.7h1.1v4.3h4.9v-4.3h1.1v9.7H283.1z"/>
	<path class="st4" d="M287.6,94.1v-9.7h5.9v1h-4.8v3.3h4v0.9h-4v3.5h4.8v1C293.5,94.1,287.6,94.1,287.6,94.1z"/>
	<path class="st4" d="M297.4,90.4v3.7h-1.1v-9.7h3.6c1,0,1.8,0.2,2.3,0.7s0.8,1.2,0.8,2.2c0,1.5-0.6,2.4-1.8,2.8l1.9,3.9h-1.2
		l-1.8-3.7L297.4,90.4L297.4,90.4z M300,89.5c1.3,0,2-0.7,2-2c0-1.4-0.7-2-2-2h-2.5v4.1L300,89.5L300,89.5z"/>
	<path class="st4" d="M305.1,94.1l2.7-9.7h2.4l2.7,9.7h-1.1l-0.7-2.5H307l-0.7,2.5H305.1z M308.6,85.4l-1.5,5.3h3.7l-1.5-5.3
		C309.3,85.4,308.6,85.4,308.6,85.4z"/>
	<path class="st4" d="M313.7,85.4v-1h7v1h-3v8.7h-1.1v-8.7H313.7z"/>
	<path class="st4" d="M323.1,94.1v-9.7h1.1v9.7H323.1z"/>
	<path class="st4" d="M334.8,89.4c0,1.7-0.3,3-0.8,3.8c-0.6,0.8-1.6,1.2-3,1.2s-2.5-0.4-3-1.2c-0.5-0.8-0.8-2-0.8-3.7s0.3-3,0.8-3.8
		c0.6-0.8,1.6-1.2,3-1.2s2.4,0.4,3,1.2C334.6,86.4,334.8,87.6,334.8,89.4z M328.3,89.3c0,1.4,0.2,2.4,0.6,3.1
		c0.4,0.6,1.1,0.9,2.2,0.9s1.8-0.3,2.2-0.9s0.6-1.6,0.6-3.1c0-1.4-0.2-2.5-0.6-3.1c-0.4-0.7-1.1-1-2.1-1s-1.8,0.3-2.1,1
		C328.5,86.9,328.3,87.9,328.3,89.3z"/>
	<path class="st4" d="M268.7,110.9v-9.7h1.1v9.7H268.7z"/>
	<path class="st4" d="M273.1,110.9v-9.7h2l3.7,8.7h0.3v-8.7h1.1v9.7h-2l-3.8-8.7h-0.3v8.7H273.1z"/>
	<path class="st4" d="M282.7,102.2v-1h7v1h-3v8.7h-1.1v-8.7H282.7z"/>
	<path class="st4" d="M292.1,110.9v-9.7h5.9v1h-4.8v3.3h4v0.9h-4v3.6h4.8v1L292.1,110.9L292.1,110.9z"/>
	<path class="st4" d="M301.9,107.2v3.7h-1.1v-9.7h3.6c1,0,1.8,0.2,2.3,0.7s0.8,1.2,0.8,2.2c0,1.5-0.6,2.4-1.8,2.8l1.9,3.9h-1.2
		l-1.8-3.7L301.9,107.2L301.9,107.2z M304.5,106.3c1.3,0,2-0.7,2-2c0-1.4-0.7-2-2-2H302v4.1L304.5,106.3L304.5,106.3z"/>
	<path class="st4" d="M310.5,110.9v-9.7h1.1v9.7H310.5z"/>
	<path class="st4" d="M322.3,106.2c0,1.7-0.3,3-0.8,3.8c-0.6,0.8-1.6,1.2-3,1.2s-2.5-0.4-3-1.2c-0.5-0.8-0.8-2-0.8-3.7
		s0.3-3,0.8-3.8c0.6-0.8,1.6-1.2,3-1.2s2.4,0.4,3,1.2C322,103.2,322.3,104.4,322.3,106.2z M315.7,106.1c0,1.4,0.2,2.4,0.6,3.1
		c0.4,0.6,1.1,0.9,2.2,0.9s1.8-0.3,2.2-0.9c0.4-0.6,0.6-1.6,0.6-3.1c0-1.4-0.2-2.5-0.6-3.1c-0.4-0.7-1.1-1-2.1-1s-1.8,0.3-2.1,1
		C315.9,103.7,315.7,104.7,315.7,106.1z"/>
	<path class="st4" d="M326.4,107.2v3.7h-1.1v-9.7h3.6c1,0,1.8,0.2,2.3,0.7s0.8,1.2,0.8,2.2c0,1.5-0.6,2.4-1.8,2.8l1.9,3.9h-1.2
		l-1.8-3.7L326.4,107.2L326.4,107.2z M328.9,106.3c1.3,0,2-0.7,2-2c0-1.4-0.7-2-2-2h-2.5v4.1L328.9,106.3L328.9,106.3z"/>
	<path class="st4" d="M271.3,118.8c-1.4,0-2.1,0.5-2.1,1.6c0,0.6,0.2,1,0.5,1.2s1,0.4,2,0.7c1,0.2,1.7,0.5,2.1,0.9
		c0.4,0.3,0.6,0.9,0.6,1.7c0,2-1,3-3.1,3c-0.7,0-1.5-0.1-2.6-0.2l-0.5-0.1l0.1-0.9c1.3,0.2,2.2,0.3,2.9,0.3c1.4,0,2.1-0.6,2.1-1.9
		c0-0.5-0.2-0.9-0.5-1.1s-0.9-0.4-1.7-0.6c-1.1-0.2-1.9-0.5-2.3-0.9c-0.5-0.4-0.7-1-0.7-1.9c0-1.7,1-2.6,3.1-2.6
		c0.7,0,1.5,0.1,2.5,0.2l0.5,0.1l-0.1,0.9C272.8,118.9,271.9,118.8,271.3,118.8z"/>
	<path class="st4" d="M276.3,119v-1h7v1h-3v8.7h-1V119H276.3z"/>
	<path class="st4" d="M286.7,124.8c0,1.4,0.8,2.1,2.3,2.1c0.8,0,1.4-0.2,1.8-0.5s0.6-0.9,0.6-1.6V118h1.1v6.7c0,1.1-0.3,1.9-0.9,2.4
		s-1.4,0.7-2.5,0.7s-2-0.2-2.5-0.7s-0.8-1.3-0.8-2.4V118h1.1v6.8H286.7z"/>
	<path class="st4" d="M299.2,127.7h-3.5V118h3.5c1.6,0,2.6,0.6,3.1,1.9c0.3,0.7,0.4,1.7,0.4,2.8c0,2.4-0.6,4-1.8,4.6
		C300.5,127.6,299.9,127.7,299.2,127.7z M301.7,122.7c0-1.9-0.4-3-1.2-3.5c-0.3-0.2-0.7-0.3-1.2-0.3h-2.4v7.8h2.4
		C300.9,126.8,301.7,125.4,301.7,122.7z"/>
	<path class="st4" d="M305.9,127.7V118h1.1v9.7H305.9z"/>
	<path class="st4" d="M317.6,123c0,1.7-0.3,3-0.8,3.8c-0.6,0.8-1.6,1.2-3,1.2s-2.5-0.4-3-1.2s-0.8-2-0.8-3.7s0.3-3,0.8-3.8
		c0.6-0.8,1.6-1.2,3-1.2s2.4,0.4,3,1.2C317.3,120,317.6,121.2,317.6,123z M311.1,122.9c0,1.4,0.2,2.4,0.6,3.1
		c0.4,0.6,1.1,0.9,2.2,0.9s1.8-0.3,2.2-0.9s0.6-1.6,0.6-3.1c0-1.4-0.2-2.5-0.6-3.1c-0.4-0.7-1.1-1-2.1-1s-1.8,0.3-2.1,1
		C311.2,120.5,311.1,121.5,311.1,122.9z"/>
</g>
<polygon class="st5" points="87.4,172.6 87.4,202.3 71.2,202.3 64.3,190.7 64.3,202.3 57.7,202.3 57.7,172.6 70.2,172.6 77.2,184.4 
	77.2,172.6 "/>
<polygon class="st5" points="118.7,172.6 118.7,202.3 110.7,202.3 103.8,190.7 96.9,202.3 89,202.3 89,172.6 "/>
<polygon class="st5" points="118.7,203.7 118.7,233.3 110.7,233.3 103.8,221.7 96.9,233.3 89,233.3 89,203.7 "/>
<path class="st5" d="M78.2,227.2l3.6,6.1H71.2l-6.9-11.6v11.6h-6.5v-29.6h17.7c6.6,0,11.9,5.3,11.9,11.9
	C87.4,221.2,83.5,226,78.2,227.2z"/>
<g>
	<g>
		<path class="st5" d="M57.9,165.7h0.4h0.4l1.6,4.7l0,0l1.6-4.7h0.4h0.4l-2,5.5h-0.4h-0.4L57.9,165.7z"/>
		<path class="st5" d="M63.5,165.7h0.4h0.4v5.5h-0.4h-0.4V165.7z"/>
		<path class="st5" d="M67.1,165.7h0.4h0.4l2,5.5h-0.4h-0.4l-0.6-1.6h-2.2l-0.6,1.6h-0.4h-0.4L67.1,165.7z M66.7,169h1.7l-0.8-2.4
			l0,0L66.7,169z"/>
	</g>
</g>
<g>
	<g>
		<path class="st5" d="M58.7,235.1h0.6v1.6h0.9v0.5h-0.9v3.9h-0.6v-3.9h-0.8v-0.5h0.8V235.1z"/>
		<path class="st5" d="M61.2,235h0.6v2.5c0.2-0.3,0.5-0.5,0.8-0.7s0.6-0.2,0.9-0.2s0.6,0.1,0.9,0.3c0.3,0.2,0.4,0.4,0.6,0.7
			c0.2,0.3,0.2,0.7,0.2,1.3v2.3h-0.6v-2.1c0-0.5,0-0.8-0.1-1c-0.1-0.3-0.2-0.5-0.4-0.7c-0.2-0.1-0.4-0.2-0.7-0.2s-0.7,0.1-0.9,0.3
			c-0.3,0.2-0.5,0.5-0.5,0.8c-0.1,0.2-0.1,0.6-0.1,1.2v1.6h-0.6L61.2,235L61.2,235z"/>
		<path class="st5" d="M70.2,239.7l0.5,0.3c-0.2,0.3-0.3,0.6-0.5,0.7c-0.2,0.2-0.4,0.3-0.7,0.4c-0.3,0.1-0.5,0.1-0.9,0.1
			c-0.7,0-1.3-0.2-1.7-0.7c-0.4-0.5-0.6-1-0.6-1.6c0-0.6,0.2-1.1,0.5-1.5c0.4-0.6,1-0.8,1.8-0.8c0.8,0,1.4,0.3,1.8,0.9
			c0.3,0.4,0.5,0.9,0.5,1.5h-4c0,0.5,0.2,0.9,0.5,1.3c0.3,0.3,0.7,0.5,1.2,0.5c0.2,0,0.4,0,0.7-0.1c0.2-0.1,0.4-0.2,0.5-0.3
			C69.9,240.2,70,239.9,70.2,239.7z M70.2,238.5c-0.1-0.3-0.2-0.5-0.3-0.7s-0.3-0.3-0.6-0.4c-0.2-0.1-0.5-0.2-0.8-0.2
			c-0.4,0-0.8,0.1-1.1,0.4c-0.2,0.2-0.4,0.5-0.5,0.9C66.9,238.5,70.2,238.5,70.2,238.5z"/>
		<path class="st5" d="M74.5,235h0.6v6.1h-0.6V235z"/>
		<path class="st5" d="M76.6,234.9c0.1,0,0.2,0,0.3,0.1c0.1,0.1,0.1,0.2,0.1,0.3s0,0.2-0.1,0.3c-0.1,0.1-0.2,0.1-0.3,0.1
			s-0.2,0-0.3-0.1c-0.1-0.1-0.1-0.2-0.1-0.3c0-0.1,0-0.2,0.1-0.3C76.4,234.9,76.5,234.9,76.6,234.9z M76.2,236.7h0.6v4.4h-0.6V236.7
			z"/>
		<path class="st5" d="M77.8,236.7h0.6l1.5,3.2l1.5-3.2H82l-2,4.4h-0.1L77.8,236.7z"/>
		<path class="st5" d="M83.2,234.9c0.1,0,0.2,0,0.3,0.1c0.1,0.1,0.1,0.2,0.1,0.3s0,0.2-0.1,0.3s-0.2,0.1-0.3,0.1s-0.2,0-0.3-0.1
			c-0.1-0.1-0.1-0.2-0.1-0.3c0-0.1,0-0.2,0.1-0.3S83.1,234.9,83.2,234.9z M83,236.7h0.6v4.4H83V236.7z"/>
		<path class="st5" d="M84.9,236.7h0.6v0.8c0.2-0.3,0.5-0.5,0.8-0.7c0.3-0.2,0.6-0.2,0.9-0.2s0.6,0.1,0.9,0.3
			c0.3,0.2,0.4,0.4,0.6,0.7c0.2,0.3,0.2,0.7,0.2,1.3v2.3h-0.6v-2.1c0-0.5,0-0.8-0.1-1c-0.1-0.3-0.2-0.5-0.4-0.7
			c-0.2-0.1-0.4-0.2-0.7-0.2c-0.3,0-0.7,0.1-0.9,0.3c-0.3,0.2-0.5,0.5-0.5,0.8c-0.1,0.2-0.1,0.6-0.1,1.2v1.6h-0.7V236.7z"/>
		<path class="st5" d="M93.9,236.7h0.6v3.5c0,0.6-0.1,1.1-0.2,1.4c-0.1,0.4-0.4,0.7-0.8,0.9c-0.4,0.2-0.8,0.3-1.3,0.3
			c-0.4,0-0.7-0.1-1-0.2c-0.3-0.1-0.5-0.3-0.7-0.4c-0.2-0.2-0.4-0.4-0.5-0.8h0.6c0.2,0.3,0.4,0.5,0.7,0.6c0.3,0.1,0.6,0.2,1,0.2
			s0.7-0.1,1-0.2c0.3-0.1,0.5-0.3,0.6-0.5s0.2-0.6,0.2-1.1v-0.2c-0.2,0.3-0.5,0.5-0.8,0.6c-0.3,0.1-0.6,0.2-1,0.2s-0.8-0.1-1.1-0.3
			c-0.4-0.2-0.6-0.5-0.8-0.8c-0.4-0.2-0.5-0.6-0.5-1c0-0.4,0.1-0.8,0.3-1.1c0.2-0.4,0.5-0.6,0.8-0.8c0.4-0.2,0.7-0.3,1.1-0.3
			c0.3,0,0.6,0.1,0.9,0.2c0.3,0.1,0.6,0.4,0.8,0.7v-0.9H93.9z M92.2,237.1c-0.3,0-0.6,0.1-0.9,0.2c-0.3,0.2-0.5,0.4-0.6,0.6
			c-0.2,0.3-0.2,0.6-0.2,0.9c0,0.5,0.2,0.9,0.5,1.2s0.7,0.5,1.3,0.5c0.5,0,0.9-0.2,1.3-0.5c0.3-0.3,0.5-0.7,0.5-1.2
			c0-0.3-0.1-0.6-0.2-0.9c-0.1-0.3-0.4-0.5-0.6-0.6C92.9,237.2,92.6,237.1,92.2,237.1z"/>
		<path class="st5" d="M100.6,237.2l-0.4,0.4c-0.3-0.3-0.6-0.4-0.9-0.4c-0.2,0-0.3,0.1-0.5,0.2c-0.1,0.1-0.2,0.3-0.2,0.4
			c0,0.1,0.1,0.3,0.2,0.4c0.1,0.1,0.3,0.3,0.7,0.5c0.4,0.2,0.7,0.4,0.9,0.6c0.1,0.2,0.2,0.4,0.2,0.7c0,0.4-0.1,0.7-0.4,0.9
			c-0.3,0.3-0.6,0.4-1,0.4c-0.3,0-0.5-0.1-0.7-0.2c-0.2-0.1-0.4-0.3-0.6-0.5l0.4-0.4c0.3,0.3,0.6,0.5,0.9,0.5c0.2,0,0.4-0.1,0.6-0.2
			c0.2-0.1,0.2-0.3,0.2-0.5s-0.1-0.3-0.2-0.4c-0.1-0.1-0.3-0.3-0.7-0.5s-0.7-0.4-0.8-0.6c-0.1-0.2-0.2-0.4-0.2-0.7
			c0-0.3,0.1-0.6,0.3-0.8c0.2-0.2,0.5-0.3,0.9-0.3C99.8,236.6,100.2,236.8,100.6,237.2z"/>
		<path class="st5" d="M102.2,235.1h0.6v1.6h0.9v0.5h-0.9v3.9h-0.6v-3.9h-0.8v-0.5h0.8V235.1z"/>
		<path class="st5" d="M104.2,236.7h0.6l1.5,3.4l1.5-3.4h0.6l-2.6,6h-0.6l0.8-1.9L104.2,236.7z"/>
		<path class="st5" d="M109.4,235h0.5v6.1h-0.6V235H109.4z"/>
		<path class="st5" d="M111.4,234.9c0.1,0,0.2,0,0.3,0.1c0.1,0.1,0.1,0.2,0.1,0.3s0,0.2-0.1,0.3c-0.1,0.1-0.2,0.1-0.3,0.1
			c-0.1,0-0.2,0-0.3-0.1c-0.1-0.1-0.1-0.2-0.1-0.3c0-0.1,0-0.2,0.1-0.3C111.2,234.9,111.4,234.9,111.4,234.9z M111.2,236.7h0.6v4.4
			h-0.6V236.7z"/>
		<path class="st5" d="M115.4,237.2l-0.4,0.4c-0.3-0.3-0.6-0.4-0.9-0.4c-0.2,0-0.3,0.1-0.5,0.2c-0.1,0.1-0.2,0.3-0.2,0.4
			c0,0.1,0.1,0.3,0.2,0.4c0.1,0.1,0.3,0.3,0.7,0.5s0.7,0.4,0.9,0.6c0.1,0.2,0.2,0.4,0.2,0.7c0,0.4-0.1,0.7-0.4,0.9
			c-0.3,0.3-0.6,0.4-1,0.4c-0.3,0-0.5-0.1-0.7-0.2c-0.2-0.1-0.4-0.3-0.6-0.5l0.4-0.4c0.3,0.3,0.6,0.5,0.9,0.5c0.2,0,0.4-0.1,0.6-0.2
			c0.2-0.1,0.2-0.3,0.2-0.5s-0.1-0.3-0.2-0.4c-0.1-0.1-0.3-0.3-0.7-0.5c-0.4-0.2-0.7-0.4-0.8-0.6s-0.2-0.4-0.2-0.7
			c0-0.3,0.1-0.6,0.3-0.8c0.2-0.2,0.5-0.3,0.9-0.3C114.4,236.6,114.9,236.8,115.4,237.2z"/>
		<path class="st5" d="M116.9,235.1h0.6v1.6h0.9v0.5h-0.9v3.9h-0.6v-3.9h-0.8v-0.5h0.8V235.1z"/>
	</g>
</g>
<text transform="matrix(1 0 0 1 198.5004 92.154)" class="st4" style="font-family:'MyriadPro-Regular'; font-size:21px;">LIVING </text>
<text transform="matrix(1 0 0 1 198.5004 116.154)" class="st4" style="font-family:'MyriadPro-Regular'; font-size:21px;">WITH</text>
<text transform="matrix(1 0 0 1 198.5004 140.154)" class="st4" style="font-family:'MyriadPro-Regular'; font-size:21px;">STYLE</text>
<polygon class="st6" points="40.2,9.6 40.2,42.7 22.1,42.7 14.4,29.7 14.4,42.7 7,42.7 7,9.6 21,9.6 28.8,22.7 28.8,9.6 "/>
<polygon class="st6" points="75.2,9.6 75.2,42.7 66.4,42.7 58.7,29.7 50.9,42.7 42.1,42.7 42.1,9.6 "/>
<polygon class="st6" points="75.2,44.3 75.2,77.5 66.4,77.5 58.7,64.5 50.9,77.5 42.1,77.5 42.1,44.3 "/>
<path class="st6" d="M29.9,70.7l4.1,6.8H22l-7.7-13v13H7V44.3h19.8c7.4,0,13.4,6,13.4,13.4C40.2,64,35.8,69.3,29.9,70.7z"/>
<g>
	<g>
		<path class="st6" d="M7.2,1.8h0.5h0.5l1.8,5.3h0l1.8-5.3h0.5h0.5L10.3,8H9.9H9.4L7.2,1.8z"/>
		<path class="st6" d="M13.5,1.8h0.4h0.4V8h-0.4h-0.4V1.8z"/>
		<path class="st6" d="M17.6,1.8H18h0.5L20.7,8h-0.4h-0.4l-0.6-1.8h-2.5L16.1,8h-0.4h-0.4L17.6,1.8z M17,5.5h1.9L18,2.7h0L17,5.5z"
			/>
	</g>
</g>
<g>
	<g>
		<path class="st6" d="M8.1,79.5h0.6v1.8h1v0.5h-1v4.4H8.1v-4.4H7.3v-0.5h0.9V79.5z"/>
		<path class="st6" d="M10.9,79.4h0.6v2.8c0.3-0.3,0.5-0.6,0.8-0.8c0.3-0.2,0.6-0.3,1-0.3c0.4,0,0.7,0.1,1,0.3
			c0.3,0.2,0.5,0.4,0.6,0.8c0.1,0.3,0.2,0.8,0.2,1.5v2.5h-0.6v-2.4c0-0.6,0-0.9-0.1-1.1c-0.1-0.3-0.2-0.6-0.4-0.7
			c-0.2-0.2-0.5-0.2-0.8-0.2c-0.4,0-0.7,0.1-1,0.4c-0.3,0.3-0.5,0.6-0.6,0.9c-0.1,0.2-0.1,0.7-0.1,1.3v1.8h-0.6V79.4z"/>
		<path class="st6" d="M21,84.6l0.5,0.3c-0.2,0.3-0.4,0.6-0.6,0.8c-0.2,0.2-0.5,0.4-0.8,0.5c-0.3,0.1-0.6,0.2-1,0.2
			c-0.8,0-1.4-0.3-1.9-0.8c-0.5-0.5-0.7-1.1-0.7-1.8c0-0.6,0.2-1.2,0.6-1.7c0.5-0.6,1.1-0.9,2-0.9c0.8,0,1.5,0.3,2,1
			c0.4,0.5,0.5,1,0.5,1.7h-4.4c0,0.6,0.2,1,0.5,1.4c0.4,0.4,0.8,0.6,1.3,0.6c0.3,0,0.5,0,0.7-0.1c0.2-0.1,0.4-0.2,0.6-0.3
			C20.6,85.1,20.8,84.9,21,84.6z M21,83.3c-0.1-0.3-0.2-0.6-0.4-0.8c-0.2-0.2-0.4-0.4-0.6-0.5c-0.3-0.1-0.5-0.2-0.8-0.2
			c-0.5,0-0.9,0.2-1.3,0.5c-0.3,0.2-0.4,0.6-0.6,1H21z"/>
		<path class="st6" d="M25.8,79.4h0.6v6.9h-0.6V79.4z"/>
		<path class="st6" d="M28.1,79.3c0.1,0,0.3,0.1,0.4,0.2c0.1,0.1,0.2,0.2,0.2,0.4c0,0.1-0.1,0.3-0.2,0.4c-0.1,0.1-0.2,0.2-0.4,0.2
			c-0.1,0-0.3-0.1-0.4-0.2c-0.1-0.1-0.2-0.2-0.2-0.4c0-0.1,0.1-0.3,0.2-0.4C27.9,79.3,28,79.3,28.1,79.3z M27.8,81.3h0.6v4.9h-0.6
			V81.3z"/>
		<path class="st6" d="M29.5,81.3h0.7l1.7,3.6l1.6-3.6h0.7l-2.3,4.9h-0.1L29.5,81.3z"/>
		<path class="st6" d="M35.6,79.3c0.1,0,0.3,0.1,0.4,0.2c0.1,0.1,0.2,0.2,0.2,0.4c0,0.1-0.1,0.3-0.2,0.4c-0.1,0.1-0.2,0.2-0.4,0.2
			c-0.1,0-0.3-0.1-0.4-0.2c-0.1-0.1-0.2-0.2-0.2-0.4c0-0.1,0.1-0.3,0.2-0.4C35.3,79.3,35.4,79.3,35.6,79.3z M35.3,81.3h0.6v4.9h-0.6
			V81.3z"/>
		<path class="st6" d="M37.4,81.3h0.6v0.9c0.3-0.3,0.5-0.6,0.8-0.8c0.3-0.2,0.6-0.3,1-0.3c0.4,0,0.7,0.1,1,0.3
			c0.3,0.2,0.5,0.4,0.6,0.8c0.1,0.3,0.2,0.8,0.2,1.5v2.5h-0.6v-2.4c0-0.6,0-0.9-0.1-1.1c-0.1-0.3-0.2-0.6-0.4-0.7
			c-0.2-0.2-0.5-0.2-0.8-0.2c-0.4,0-0.7,0.1-1,0.4c-0.3,0.3-0.5,0.6-0.6,0.9c-0.1,0.2-0.1,0.7-0.1,1.3v1.8h-0.6V81.3z"/>
		<path class="st6" d="M47.6,81.3h0.6v3.9c0,0.7-0.1,1.2-0.2,1.5c-0.2,0.5-0.5,0.8-0.9,1c-0.4,0.2-0.9,0.4-1.5,0.4
			c-0.4,0-0.8-0.1-1.1-0.2c-0.3-0.1-0.6-0.3-0.8-0.5c-0.2-0.2-0.4-0.5-0.6-0.9h0.7c0.2,0.3,0.4,0.6,0.7,0.7c0.3,0.2,0.7,0.2,1.1,0.2
			c0.4,0,0.8-0.1,1.1-0.2c0.3-0.2,0.5-0.4,0.6-0.6c0.1-0.2,0.2-0.6,0.2-1.2v-0.3c-0.2,0.3-0.5,0.5-0.9,0.7c-0.3,0.2-0.7,0.2-1.1,0.2
			c-0.5,0-0.9-0.1-1.3-0.3c-0.4-0.2-0.7-0.5-0.9-0.9c-0.2-0.4-0.3-0.8-0.3-1.3c0-0.5,0.1-0.9,0.3-1.3c0.2-0.4,0.5-0.7,0.9-0.9
			c0.4-0.2,0.8-0.3,1.3-0.3c0.4,0,0.7,0.1,1,0.2c0.3,0.2,0.6,0.4,0.9,0.8V81.3z M45.7,81.8c-0.4,0-0.7,0.1-1,0.3
			c-0.3,0.2-0.6,0.4-0.7,0.7c-0.2,0.3-0.3,0.6-0.3,1c0,0.5,0.2,1,0.5,1.3c0.4,0.4,0.8,0.5,1.4,0.5c0.6,0,1.1-0.2,1.4-0.5
			c0.4-0.4,0.5-0.8,0.5-1.4c0-0.4-0.1-0.7-0.2-1c-0.2-0.3-0.4-0.5-0.7-0.7S46,81.8,45.7,81.8z"/>
		<path class="st6" d="M55,81.8l-0.4,0.4c-0.3-0.3-0.7-0.5-1-0.5c-0.2,0-0.4,0.1-0.5,0.2c-0.1,0.1-0.2,0.3-0.2,0.5
			c0,0.2,0.1,0.3,0.2,0.5c0.1,0.1,0.4,0.3,0.8,0.5c0.5,0.2,0.8,0.5,1,0.7c0.2,0.2,0.3,0.5,0.3,0.8c0,0.4-0.1,0.7-0.4,1
			c-0.3,0.3-0.6,0.4-1.1,0.4c-0.3,0-0.6-0.1-0.8-0.2c-0.3-0.1-0.5-0.3-0.6-0.5l0.4-0.5c0.3,0.4,0.7,0.5,1,0.5c0.3,0,0.5-0.1,0.7-0.2
			c0.2-0.2,0.3-0.4,0.3-0.6c0-0.2-0.1-0.3-0.2-0.5c-0.1-0.1-0.4-0.3-0.8-0.5c-0.4-0.2-0.7-0.5-0.9-0.7c-0.2-0.2-0.2-0.5-0.2-0.8
			c0-0.4,0.1-0.7,0.4-0.9c0.3-0.2,0.6-0.4,1-0.4C54.1,81.2,54.6,81.4,55,81.8z"/>
		<path class="st6" d="M56.9,79.5h0.6v1.8h1v0.5h-1v4.4h-0.6v-4.4H56v-0.5h0.9V79.5z"/>
		<path class="st6" d="M59.2,81.3h0.7l1.7,3.8l1.6-3.8h0.7L60.9,88h-0.7l1-2.2L59.2,81.3z"/>
		<path class="st6" d="M64.8,79.4h0.6v6.9h-0.6V79.4z"/>
		<path class="st6" d="M67.2,79.3c0.1,0,0.3,0.1,0.4,0.2c0.1,0.1,0.2,0.2,0.2,0.4c0,0.1-0.1,0.3-0.2,0.4c-0.1,0.1-0.2,0.2-0.4,0.2
			c-0.1,0-0.3-0.1-0.4-0.2c-0.1-0.1-0.2-0.2-0.2-0.4c0-0.1,0.1-0.3,0.2-0.4C66.9,79.3,67.1,79.3,67.2,79.3z M66.9,81.3h0.6v4.9h-0.6
			V81.3z"/>
		<path class="st6" d="M71.5,81.8l-0.4,0.4c-0.3-0.3-0.7-0.5-1-0.5c-0.2,0-0.4,0.1-0.5,0.2c-0.1,0.1-0.2,0.3-0.2,0.5
			c0,0.2,0.1,0.3,0.2,0.5c0.1,0.1,0.4,0.3,0.8,0.5c0.5,0.2,0.8,0.5,1,0.7c0.2,0.2,0.3,0.5,0.3,0.8c0,0.4-0.1,0.7-0.4,1
			c-0.3,0.3-0.6,0.4-1.1,0.4c-0.3,0-0.6-0.1-0.8-0.2c-0.3-0.1-0.5-0.3-0.6-0.5l0.4-0.5c0.3,0.4,0.7,0.5,1,0.5c0.3,0,0.5-0.1,0.7-0.2
			c0.2-0.2,0.3-0.4,0.3-0.6c0-0.2-0.1-0.3-0.2-0.5c-0.1-0.1-0.4-0.3-0.8-0.5c-0.4-0.2-0.7-0.5-0.9-0.7c-0.2-0.2-0.2-0.5-0.2-0.8
			c0-0.4,0.1-0.7,0.4-0.9c0.3-0.2,0.6-0.4,1-0.4C70.6,81.2,71.1,81.4,71.5,81.8z"/>
		<path class="st6" d="M73.4,79.5h0.6v1.8h1v0.5h-1v4.4h-0.6v-4.4h-0.9v-0.5h0.9V79.5z"/>
	</g>
</g>
</svg>
