<?xml version="1.0" encoding="utf-8"?>
<!-- Generator: Adobe Illustrator 25.0.0, SVG Export Plug-In . SVG Version: 6.00 Build 0)  -->
<svg version="1.1" id="Layer_1" xmlns="http://www.w3.org/2000/svg" xmlns:xlink="http://www.w3.org/1999/xlink" x="0px" y="0px"
	 viewBox="0 0 178.3 74.4" style="enable-background:new 0 0 178.3 74.4;" xml:space="preserve">
<style type="text/css">
	.st0{fill:#EDDD97;}
</style>
<g>
	<g>
		<g>
			<path class="st0" d="M50,45h1.2v3.4H53v1h-1.8v8.2H50v-8.2h-1.6v-1H50V45z"/>
			<path class="st0" d="M55.1,44.9h1.2v5.2c0.5-0.6,1-1.1,1.5-1.4s1.2-0.5,1.8-0.5c0.7,0,1.3,0.2,1.8,0.5c0.5,0.4,0.9,0.8,1.1,1.4
				c0.2,0.6,0.4,1.5,0.4,2.8v4.8h-1.2v-4.4c0-1.1,0-1.8-0.1-2.1c-0.1-0.6-0.4-1.1-0.8-1.4c-0.4-0.3-0.9-0.5-1.5-0.5
				c-0.7,0-1.3,0.2-1.9,0.7c-0.6,0.5-0.9,1.1-1.1,1.8c-0.1,0.5-0.2,1.3-0.2,2.5v3.4h-1.2V44.9z"/>
			<path class="st0" d="M73.3,54.7l1,0.5c-0.3,0.6-0.7,1.2-1.1,1.6c-0.4,0.4-0.9,0.7-1.4,0.9C71.2,57.9,70.6,58,70,58
				c-1.5,0-2.6-0.5-3.4-1.5c-0.8-1-1.2-2.1-1.2-3.4c0-1.2,0.3-2.2,1-3.1c0.9-1.2,2.1-1.8,3.6-1.8c1.5,0,2.7,0.6,3.7,1.8
				c0.6,0.8,1,1.9,1,3.2h-8.1c0,1.1,0.4,2,1,2.6c0.6,0.7,1.4,1,2.4,1c0.5,0,0.9-0.1,1.3-0.2c0.4-0.2,0.8-0.4,1.1-0.7
				C72.6,55.7,72.9,55.3,73.3,54.7z M73.3,52.2c-0.2-0.6-0.4-1.1-0.7-1.5s-0.7-0.7-1.2-0.9c-0.5-0.2-1-0.3-1.5-0.3
				c-0.9,0-1.6,0.3-2.3,0.9c-0.5,0.4-0.8,1.1-1,1.9H73.3z"/>
			<path class="st0" d="M81.9,44.9h1.2v12.8h-1.2V44.9z"/>
			<path class="st0" d="M86.3,44.7c0.3,0,0.5,0.1,0.7,0.3c0.2,0.2,0.3,0.4,0.3,0.7c0,0.3-0.1,0.5-0.3,0.7c-0.2,0.2-0.4,0.3-0.7,0.3
				c-0.3,0-0.5-0.1-0.7-0.3c-0.2-0.2-0.3-0.4-0.3-0.7c0-0.3,0.1-0.5,0.3-0.7C85.8,44.8,86,44.7,86.3,44.7z M85.7,48.5h1.2v9.3h-1.2
				V48.5z"/>
			<path class="st0" d="M88.8,48.5H90l3,6.8l3-6.8h1.2l-4.1,9.3h-0.2L88.8,48.5z"/>
			<path class="st0" d="M99.7,44.7c0.3,0,0.5,0.1,0.7,0.3c0.2,0.2,0.3,0.4,0.3,0.7c0,0.3-0.1,0.5-0.3,0.7c-0.2,0.2-0.4,0.3-0.7,0.3
				c-0.3,0-0.5-0.1-0.7-0.3c-0.2-0.2-0.3-0.4-0.3-0.7c0-0.3,0.1-0.5,0.3-0.7C99.3,44.8,99.5,44.7,99.7,44.7z M99.2,48.5h1.2v9.3
				h-1.2V48.5z"/>
			<path class="st0" d="M103.1,48.5h1.2v1.7c0.5-0.6,1-1.1,1.5-1.4s1.2-0.5,1.8-0.5c0.7,0,1.3,0.2,1.8,0.5s0.9,0.8,1.1,1.4
				c0.2,0.6,0.4,1.5,0.4,2.8v4.8h-1.2v-4.4c0-1.1,0-1.8-0.1-2.1c-0.1-0.6-0.4-1.1-0.8-1.4c-0.4-0.3-0.9-0.5-1.5-0.5
				c-0.7,0-1.3,0.2-1.9,0.7c-0.6,0.5-0.9,1.1-1.1,1.8c-0.1,0.5-0.2,1.3-0.2,2.5v3.4h-1.2V48.5z"/>
			<path class="st0" d="M121.5,48.5h1.2v7.4c0,1.3-0.1,2.3-0.3,2.9c-0.3,0.9-0.8,1.5-1.6,2c-0.7,0.5-1.6,0.7-2.7,0.7
				c-0.8,0-1.5-0.1-2.1-0.3c-0.6-0.2-1.1-0.5-1.5-0.9c-0.4-0.4-0.7-0.9-1.1-1.7h1.3c0.3,0.6,0.8,1.1,1.3,1.4c0.5,0.3,1.2,0.4,2,0.4
				c0.8,0,1.5-0.2,2-0.5c0.5-0.3,0.9-0.7,1.2-1.1c0.2-0.5,0.3-1.2,0.3-2.2V56c-0.4,0.6-1,1-1.6,1.3c-0.6,0.3-1.3,0.5-2,0.5
				c-0.8,0-1.6-0.2-2.3-0.6c-0.7-0.4-1.3-1-1.7-1.7c-0.4-0.7-0.6-1.5-0.6-2.4c0-0.9,0.2-1.7,0.6-2.4c0.4-0.7,1-1.3,1.7-1.8
				c0.7-0.4,1.5-0.6,2.3-0.6c0.7,0,1.3,0.1,1.9,0.4c0.6,0.3,1.1,0.8,1.7,1.4V48.5z M118.1,49.4c-0.7,0-1.3,0.2-1.8,0.5
				c-0.6,0.3-1,0.8-1.3,1.4c-0.3,0.6-0.5,1.2-0.5,1.9c0,1,0.3,1.9,1,2.5c0.7,0.7,1.5,1,2.6,1c1.1,0,1.9-0.3,2.6-1
				c0.6-0.7,1-1.5,1-2.6c0-0.7-0.1-1.3-0.4-1.9s-0.7-1-1.3-1.3C119.3,49.5,118.7,49.4,118.1,49.4z"/>
			<path class="st0" d="M135,49.5l-0.7,0.8c-0.6-0.6-1.2-0.9-1.8-0.9c-0.4,0-0.7,0.1-1,0.4c-0.3,0.3-0.4,0.6-0.4,0.9
				c0,0.3,0.1,0.6,0.3,0.9c0.2,0.3,0.7,0.6,1.4,1c0.9,0.5,1.4,0.9,1.7,1.3c0.3,0.4,0.5,0.9,0.5,1.5c0,0.8-0.3,1.4-0.8,1.9
				c-0.5,0.5-1.2,0.8-1.9,0.8c-0.5,0-1-0.1-1.5-0.3c-0.5-0.2-0.9-0.6-1.2-1l0.7-0.9c0.6,0.7,1.2,1,1.9,1c0.5,0,0.9-0.2,1.2-0.5
				c0.3-0.3,0.5-0.7,0.5-1.1c0-0.3-0.1-0.6-0.3-0.9c-0.2-0.3-0.7-0.6-1.5-1c-0.8-0.4-1.4-0.9-1.7-1.3c-0.3-0.4-0.4-0.9-0.4-1.4
				c0-0.7,0.2-1.3,0.7-1.8c0.5-0.5,1.1-0.7,1.8-0.7C133.4,48.2,134.2,48.7,135,49.5z"/>
			<path class="st0" d="M138.5,45h1.2v3.4h1.8v1h-1.8v8.2h-1.2v-8.2h-1.6v-1h1.6V45z"/>
			<path class="st0" d="M142.6,48.5h1.2l3.1,7.1l3-7.1h1.2l-5.3,12.7h-1.2l1.7-4.1L142.6,48.5z"/>
			<path class="st0" d="M152.8,44.9h1.2v12.8h-1.2V44.9z"/>
			<path class="st0" d="M157.1,44.7c0.3,0,0.5,0.1,0.7,0.3c0.2,0.2,0.3,0.4,0.3,0.7c0,0.3-0.1,0.5-0.3,0.7c-0.2,0.2-0.4,0.3-0.7,0.3
				c-0.3,0-0.5-0.1-0.7-0.3c-0.2-0.2-0.3-0.4-0.3-0.7c0-0.3,0.1-0.5,0.3-0.7S156.9,44.7,157.1,44.7z M156.5,48.5h1.2v9.3h-1.2V48.5z
				"/>
			<path class="st0" d="M165,49.5l-0.7,0.8c-0.6-0.6-1.2-0.9-1.8-0.9c-0.4,0-0.7,0.1-1,0.4c-0.3,0.3-0.4,0.6-0.4,0.9
				c0,0.3,0.1,0.6,0.3,0.9c0.2,0.3,0.7,0.6,1.4,1c0.9,0.5,1.4,0.9,1.7,1.3c0.3,0.4,0.5,0.9,0.5,1.5c0,0.8-0.3,1.4-0.8,1.9
				c-0.5,0.5-1.2,0.8-1.9,0.8c-0.5,0-1-0.1-1.5-0.3c-0.5-0.2-0.9-0.6-1.2-1l0.7-0.9c0.6,0.7,1.2,1,1.9,1c0.5,0,0.9-0.2,1.2-0.5
				c0.3-0.3,0.5-0.7,0.5-1.1c0-0.3-0.1-0.6-0.3-0.9c-0.2-0.3-0.7-0.6-1.5-1c-0.8-0.4-1.4-0.9-1.7-1.3c-0.3-0.4-0.4-0.9-0.4-1.4
				c0-0.7,0.2-1.3,0.7-1.8c0.5-0.5,1.1-0.7,1.8-0.7C163.3,48.2,164.1,48.7,165,49.5z"/>
			<path class="st0" d="M168.4,45h1.2v3.4h1.8v1h-1.8v8.2h-1.2v-8.2h-1.6v-1h1.6V45z"/>
		</g>
	</g>
	<polygon class="st0" points="24.6,15.9 24.6,36.4 13.8,36.4 9.2,28.3 9.2,36.4 4.8,36.4 4.8,15.9 13.1,15.9 17.7,24 17.7,15.9 	"/>
	<polygon class="st0" points="45.5,15.9 45.5,36.4 40.2,36.4 35.6,28.3 31,36.4 25.7,36.4 25.7,15.9 	"/>
	<polygon class="st0" points="45.5,37.3 45.5,57.8 40.2,57.8 35.6,49.8 31,57.8 25.7,57.8 25.7,37.3 	"/>
	<path class="st0" d="M18.5,53.6l2.4,4.2h-7.2l-4.6-8v8H4.8V37.3h11.8c4.4,0,8,3.7,8,8.2C24.6,49.5,22,52.7,18.5,53.6z"/>
	<g>
		<g>
			<path class="st0" d="M4.9,5h0.7h0.7l2.7,8.5h0L11.8,5h0.7h0.7l-3.5,9.9H9H8.4L4.9,5z"/>
			<path class="st0" d="M14.7,5h0.6H16v9.9h-0.6h-0.7V5z"/>
			<path class="st0" d="M21,5h0.7h0.7l3.4,9.9h-0.7h-0.7l-1-2.9h-3.8l-1,2.9h-0.7h-0.7L21,5z M20.2,10.9h3l-1.5-4.4h0L20.2,10.9z"/>
		</g>
	</g>
</g>
</svg>
